<svg viewBox="0 0 499.99999 499.99999" xmlns="http://www.w3.org/2000/svg" xmlns:xlink="http://www.w3.org/1999/xlink"><filter id="a" color-interpolation-filters="sRGB" height="1.193403" width="1.167497" x="-.083748" y="-.096701"><feGaussianBlur stdDeviation="2.1777382"/></filter><filter id="b" color-interpolation-filters="sRGB" height="1.053719" width="1.082091" x="-.041046" y="-.026859"><feGaussianBlur stdDeviation="1.5070609"/></filter><radialGradient id="c" cx="622.10922985065" cy="485.727257928" gradientUnits="userSpaceOnUse" r="26.76748229087"><stop offset="0" stop-color="#fff" stop-opacity=".4"/><stop offset="1" stop-color="#fff" stop-opacity="0"/></radialGradient><clipPath id="d"><path d="m0 120h212.4v-120h-212.4z"/></clipPath><filter id="e" color-interpolation-filters="sRGB" height="1.097098" width="1.135378" x="-.088418" y="-.060201"><feGaussianBlur stdDeviation=".91576831"/></filter><radialGradient id="f" cx="369.60785" cy="142.15686" gradientTransform="matrix(.16103534 0 0 .1704497 -4.620229 26.608131)" gradientUnits="userSpaceOnUse" r="117.64706"><stop offset="0" stop-color="#00001c"/><stop offset="1" stop-color="#00001c" stop-opacity="0"/></radialGradient><filter id="g" color-interpolation-filters="sRGB" height="1.352417" width="1.37302" x="-.18651" y="-.176208"><feGaussianBlur stdDeviation="2.944577"/></filter><radialGradient id="h" cx="76.470596" cy="450" gradientTransform="matrix(2.0624999 0 0 1.9625 -109.19118 -418.90932)" gradientUnits="userSpaceOnUse" r="117.64706" xlink:href="#i"/><linearGradient id="i"><stop offset="0" stop-color="#0000cf"/><stop offset="1" stop-color="#0000cf" stop-opacity="0"/></linearGradient><radialGradient id="j" cx="369.60785" cy="142.15686" gradientTransform="matrix(1 0 0 1.0083333 -127.45098 -44.321896)" gradientUnits="userSpaceOnUse" r="117.64706" xlink:href="#i"/><g transform="matrix(8.4091277 0 0 8.4091277 25.862626 24.003538)"><ellipse cx="54.899693" cy="50.838619" fill="url(#f)" filter="url(#g)" opacity=".800518" rx="18.945333" ry="20.052906"/><ellipse cx="48.529419" cy="464.2157" fill="url(#h)" opacity=".821244" rx="242.64706" ry="230.88235" transform="matrix(.1189184 0 0 .1189184 -2.51924 -3.064211)"/><ellipse cx="242.15688" cy="99.019608" fill="url(#j)" opacity=".290155" rx="117.64706" ry="118.62745" transform="matrix(.1189184 0 0 .1189184 -2.51924 -3.064211)"/></g><g transform="translate(-283.31892 -248.84408)"><g style="opacity:.4;clip-path:url(#d);filter:url(#e);fill:none;stroke:#ff3c00;stroke-width:1.17404;stroke-linecap:round;stroke-miterlimit:100000" transform="matrix(3.4648596 0 0 -3.4762861 148.38942 734.39863)"><path d="m0 0c30.921-11.059 51.194-33.074 51.194-33.074l3.071.409c-12.286 12.493-32.252 26.009-54.265 32.665" transform="translate(79.0942 115.1504)"/><path d="m-32.243563 28.114426c2.959991-2.867991 2.990024-5.980048 2.990024-5.980048s-2.379729.670883-6.10172.579883c-1.098997 1.829994-4.454707 3.020203-7.719698 2.441206 2.928991-.945997 3.997054-3.326564 3.997054-3.326564s-3.66053-.67139-5.155527-1.892387c-.914997 1.159997-5.584066.793063-7.47506-1.098931 2.012994.457997 4.606857-.181264 5.033854-.700261-3.050991-1.616997-3.753709-4.576937-3.753709-4.576937s-4.606989-.213884-5.948983-3.6928744c2.043994 1.4039964 4.362069.8853574 4.362069.8853574s-1.92129-3.0207945-1.70729-6.1327849c-1.494997-.7629979-3.051254-3.4480884-2.960254-5.00408365.945997 2.01399395 2.837287 2.44120585 2.837287 2.44120585s-.757951-7.5145694 2.77904-12.4765553c3.326006-4.666 8.190239-11.616539 9.109865-14.711954.760779.09375-16.298252-3.915388-24.663168-8.466557 11.850944 3.69551 24.192677 5.577252 36.606438 5.581378 12.478464-.0022 24.8840683-1.901595 36.7915343-5.633153-7.64468514 4.17296-15.9379713 7.012148-24.5233423 8.401977-.836539.135421-.991643.208818-.230433.115061-4.195376 11.572998-13.222184 15.3761817-16.971946 17.9246117-3.832988 2.6059922-9.351619 12.9526411-.842643 16.8606294 8.508973 3.9089879 23.886538-7.5799052 23.886538-7.5799052s-.637824-5.4542621 1.9661678-7.5682558c2.6049922-2.1119937 8.7480513-4.1277734 11.6960423-6.0447671 2.9479913-1.916994 9.6318739-7.468695 10.8598709-9.680689 2.554994 2.849994 6.878017 5.553703 8.108014 6.2907-4.963988.344-10.583408 4.043006-12.0274047 5.1840032-1.4429958 1.1419967-2.8974128 2.731679-2.8774128 3.0236781.022.2919991.6884283.6031823.9384274.6031823.2499994 0 .1871544.9595098-.104845 1.3345086-.2919991.3749988-1.521644 1.8131457-2.2716416 2.709143-.7499979.8959973-5.02289103 8.3773273-5.20989049 8.7733261-.18799941.3959988-.64677171.4166606-1.45876931.3546609-.8129976-.062-4.6274182-.6251869-4.6274182-.6251869s-2.2040061 2.312308-2.3260058 2.6483071c-3.2809905 3.2429906-6.8185055 6.9376366-10.7394935 9.6716276-2.043994 1.769994-5.216362 2.38037-5.216362 2.38037s-2.381221 5.736081-7.049209 6.987078zm32.24307399-28.11399288s1.57318301-3.21341912 2.88517911-4.32841582c-.983997.066-1.93451419.7864653-2.78551164 1.9674617-.85299745 1.1799967-.09966747 2.36095412-.09966747 2.36095412z" transform="translate(135.8525 73.3237)"/><path d="m-.10003618 23.954093c-3.91886162.0042-7.91606292-1.140033-10.46249582-3.588029-4.52599-4.35099-3.250165-15.8982117 4.0048204-22.5131985 6.05546443-5.5212079 5.60069858-11.7056885 5.2849647-13.6065515.56240151.02639 1.12505522.0471 1.68787504.06213.91052036.06006 1.82256746.09416 2.73503066.102256 3.9355073-.002 7.8932542-.362296 11.7893482-.917878-3.651558 10.4807681-12.7819581 15.3154318-14.93987571 16.50742442-2.20599559 1.21799758-4.81108849 3.14745128-6.73208449 8.47044048-2.031996 5.6289881 1.4392965 11.5790671 9.9822795 10.6760691 7.7309847-.816 16.4823807-7.251512 17.9323787-7.94751-2.378996 2.261994-7.892791 7.717322-13.0007805 10.734316-2.2338706 1.319934-5.2334573 2.017289-8.28146068 2.020531z" stroke-linejoin="round" transform="translate(102.689 64.6567)"/></g><g style="stroke-width:.883632;clip-path:url(#d);fill:none;stroke:#ff3c00;stroke-linecap:round;stroke-miterlimit:100000" transform="matrix(3.4648596 0 0 -3.4762861 148.38942 734.39863)"><path d="m0 0c30.921-11.059 51.194-33.074 51.194-33.074l3.071.409c-12.286 12.493-32.252 26.009-54.265 32.665" stroke-width=".883632" transform="translate(79.0942 115.1504)"/><path d="m-32.243563 28.114426c2.959991-2.867991 2.990024-5.980048 2.990024-5.980048s-2.379729.670883-6.10172.579883c-1.098997 1.829994-4.454707 3.020203-7.719698 2.441206 2.928991-.945997 3.997054-3.326564 3.997054-3.326564s-3.66053-.67139-5.155527-1.892387c-.914997 1.159997-5.584066.793063-7.47506-1.098931 2.012994.457997 4.606857-.181264 5.033854-.700261-3.050991-1.616997-3.753709-4.576937-3.753709-4.576937s-4.606989-.213884-5.948983-3.6928744c2.043994 1.4039964 4.362069.8853574 4.362069.8853574s-1.92129-3.0207945-1.70729-6.1327849c-1.494997-.7629979-3.051254-3.4480884-2.960254-5.00408365.945997 2.01399395 2.837287 2.44120585 2.837287 2.44120585s-.757951-7.5145694 2.77904-12.4765553c3.326006-4.666 8.190239-11.616539 9.109865-14.711954.760779.09375-16.298252-3.915388-24.663168-8.466557 11.850944 3.69551 24.192677 5.577252 36.606438 5.581378 12.478464-.0022 24.8840683-1.901595 36.7915343-5.633153-7.64468514 4.17296-15.9379713 7.012148-24.5233423 8.401977-.836539.135421-.991643.208818-.230433.115061-4.195376 11.572998-13.222184 15.3761817-16.971946 17.9246117-3.832988 2.6059922-9.351619 12.9526411-.842643 16.8606294 8.508973 3.9089879 23.886538-7.5799052 23.886538-7.5799052s-.637824-5.4542621 1.9661678-7.5682558c2.6049922-2.1119937 8.7480513-4.1277734 11.6960423-6.0447671 2.9479913-1.916994 9.6318739-7.468695 10.8598709-9.680689 2.554994 2.849994 6.878017 5.553703 8.108014 6.2907-4.963988.344-10.583408 4.043006-12.0274047 5.1840032-1.4429958 1.1419967-2.8974128 2.731679-2.8774128 3.0236781.022.2919991.6884283.6031823.9384274.6031823.2499994 0 .1871544.9595098-.104845 1.3345086-.2919991.3749988-1.521644 1.8131457-2.2716416 2.709143-.7499979.8959973-5.02289103 8.3773273-5.20989049 8.7733261-.18799941.3959988-.64677171.4166606-1.45876931.3546609-.8129976-.062-4.6274182-.6251869-4.6274182-.6251869s-2.2040061 2.312308-2.3260058 2.6483071c-3.2809905 3.2429906-6.8185055 6.9376366-10.7394935 9.6716276-2.043994 1.769994-5.216362 2.38037-5.216362 2.38037s-2.381221 5.736081-7.049209 6.987078zm32.24307399-28.11399288s1.57318301-3.21341912 2.88517911-4.32841582c-.983997.066-1.93451419.7864653-2.78551164 1.9674617-.85299745 1.1799967-.09966747 2.36095412-.09966747 2.36095412z" stroke-width=".884189" transform="translate(135.8525 73.3237)"/><path d="m-.10003618 23.954093c-3.91886162.0042-7.91606292-1.140033-10.46249582-3.588029-4.52599-4.35099-3.250165-15.8982117 4.0048204-22.5131985 6.05546443-5.5212079 5.60069858-11.7056885 5.2849647-13.6065515.56240151.02639 1.12505522.0471 1.68787504.06213.91052036.06006 1.82256746.09416 2.73503066.102256 3.9355073-.002 7.8932542-.362296 11.7893482-.917878-3.651558 10.4807681-12.7819581 15.3154318-14.93987571 16.50742442-2.20599559 1.21799758-4.81108849 3.14745128-6.73208449 8.47044048-2.031996 5.6289881 1.4392965 11.5790671 9.9822795 10.6760691 7.7309847-.816 16.4823807-7.251512 17.9323787-7.94751-2.378996 2.261994-7.892791 7.717322-13.0007805 10.734316-2.2338706 1.319934-5.2334573 2.017289-8.28146068 2.020531z" stroke-linejoin="round" stroke-width=".883632" transform="translate(102.689 64.6567)"/></g><g><circle cx="622.10364" cy="485.74426" fill="url(#c)" opacity=".126" r="26.767082" stroke-width="2.57798"/><g fill="#fff"><path d="m609.95 289.88-15.602-22.343-31.767 45.566 29.676-46.921-29.113-3.3253 27.151-2.3403-11.549-24.684 17.565 23.328 54.39-80.72-52.299 82.076 27.151 2.3403-27.151 2.3403z" filter="url(#b)" opacity=".156" stroke-width="1.0005" transform="matrix(.29820786 .51515612 -.59419006 .35859591 599.46578 86.261635)"/><path d="m609.95 289.88-15.602-22.343-15.602 22.343 11.549-24.684-27.151-2.3403 27.151-2.3403-11.549-24.684 15.602 22.343 15.602-22.343-11.549 24.684 27.151 2.3403-27.151 2.3403z" filter="url(#a)" opacity=".156" transform="matrix(.10149733 .41716742 -.72299221 .12105639 751.75018 206.93648)"/></g></g></g></svg>