<?xml version="1.0" encoding="UTF-8" standalone="no"?>
<svg
   width="3840"
   height="2160"
   version="1.1"
   viewBox="0 0 1016 571.5"
   id="svg34"
   sodipodi:docname="nhp-small-logo2.svg"
   inkscape:version="1.2.1 (9c6d41e410, 2022-07-14)"
   xmlns:inkscape="http://www.inkscape.org/namespaces/inkscape"
   xmlns:sodipodi="http://sodipodi.sourceforge.net/DTD/sodipodi-0.dtd"
   xmlns:xlink="http://www.w3.org/1999/xlink"
   xmlns="http://www.w3.org/2000/svg"
   xmlns:svg="http://www.w3.org/2000/svg"
   xmlns:rdf="http://www.w3.org/1999/02/22-rdf-syntax-ns#"
   xmlns:cc="http://creativecommons.org/ns#"
   xmlns:dc="http://purl.org/dc/elements/1.1/">
  <sodipodi:namedview
     id="namedview685"
     pagecolor="#ffffff"
     bordercolor="#000000"
     borderopacity="0.25"
     inkscape:showpageshadow="2"
     inkscape:pageopacity="0.0"
     inkscape:pagecheckerboard="0"
     inkscape:deskcolor="#d1d1d1"
     showgrid="false"
     inkscape:zoom="0.31112698"
     inkscape:cx="1901.153"
     inkscape:cy="1129.7638"
     inkscape:window-width="1920"
     inkscape:window-height="1112"
     inkscape:window-x="-8"
     inkscape:window-y="-8"
     inkscape:window-maximized="1"
     inkscape:current-layer="svg34" />
  <metadata
     id="metadata38">
    <rdf:RDF>
      <cc:Work
         rdf:about="">
        <dc:format>image/svg+xml</dc:format>
        <dc:type
           rdf:resource="http://purl.org/dc/dcmitype/StillImage" />
      </cc:Work>
    </rdf:RDF>
  </metadata>
  <defs
     id="defs20">
    <linearGradient
       id="c">
      <stop
         stop-color="#23bac2"
         offset="0"
         id="stop2" />
      <stop
         stop-color="#23bac2"
         stop-opacity=".0058084"
         offset="1"
         id="stop4" />
    </linearGradient>
    <radialGradient
       id="a"
       cx="508"
       cy="285.75"
       r="508"
       gradientTransform="matrix(1.3512454,0,0,1.3613545,-178.43747,-103.24904)"
       gradientUnits="userSpaceOnUse"
       fx="508"
       fy="285.75">
      <stop
         stop-color="#2656a8"
         offset="0"
         id="stop7"
         style="stop-color:#39c1c8;stop-opacity:1" />
      <stop
         stop-color="#2f92bd"
         offset="0.16471326"
         id="stop9"
         style="stop-color:#23bac2;stop-opacity:1" />
      <stop
         stop-color="#2f92bd"
         offset="0.66365188"
         id="stop2931"
         style="stop-color:#316fd8;stop-opacity:1" />
      <stop
         stop-color="#622e78"
         offset="1"
         id="stop11"
         style="stop-color:#622e78;stop-opacity:1" />
    </radialGradient>
    <filter
       id="b"
       x="-.041846"
       y="-.056277"
       width="1.0837"
       height="1.1126"
       color-interpolation-filters="sRGB">
      <feGaussianBlur
         stdDeviation="2.6078096"
         id="feGaussianBlur14" />
    </filter>
    <radialGradient
       id="f"
       cx="508"
       cy="285.75"
       r="508"
       gradientTransform="matrix(.69839 0 0 .39285 153.22 173.49)"
       gradientUnits="userSpaceOnUse"
       xlink:href="#c" />
    <radialGradient
       id="e"
       cx="508"
       cy="285.75"
       r="508"
       gradientTransform="matrix(.63003 0 0 .39285 187.94 173.49)"
       gradientUnits="userSpaceOnUse"
       xlink:href="#c" />
    <radialGradient
       id="d"
       cx="508"
       cy="285.75"
       r="508"
       gradientTransform="matrix(.63003 0 0 .39285 -34.306 -620.26)"
       gradientUnits="userSpaceOnUse"
       xlink:href="#c" />
    <filter
       style="color-interpolation-filters:sRGB"
       id="filter1447"
       x="-0.0037661347"
       width="1.0075323"
       y="-0.0050648623"
       height="1.0101297">
      <feGaussianBlur
         stdDeviation="2.036763"
         id="feGaussianBlur1449" />
    </filter>
    <clipPath
       clipPathUnits="userSpaceOnUse"
       id="clipPath2092">
      <circle
         style="opacity:0.152883;fill:#000000;fill-opacity:1;stroke-width:10.4792;stroke-linejoin:round"
         id="circle2094"
         cx="508"
         cy="285.75"
         r="169.35667" />
    </clipPath>
    <filter
       style="color-interpolation-filters:sRGB"
       id="filter2876"
       x="-0.023538251"
       width="1.0470765"
       y="-0.031655557"
       height="1.0633111">
      <feGaussianBlur
         stdDeviation="3.3681022"
         id="feGaussianBlur2878" />
    </filter>
    <filter
       style="color-interpolation-filters:sRGB"
       id="filter880"
       x="-0.3"
       width="1.6"
       y="-0.3"
       height="1.6">
      <feGaussianBlur
         stdDeviation="39.228981"
         id="feGaussianBlur882" />
    </filter>
    <filter
       style="color-interpolation-filters:sRGB"
       id="filter1060"
       x="-0.0026153611"
       width="1.0052307"
       y="-0.0035172839"
       height="1.0070346">
      <feGaussianBlur
         stdDeviation="0.37423357"
         id="feGaussianBlur1062" />
    </filter>
    <clipPath
       clipPathUnits="userSpaceOnUse"
       id="clipPath48">
      <path
         d="M 0,120 H 212.4 V 0 H 0 Z"
         id="path46" />
    </clipPath>
  </defs>
  <rect
     y="-1.5158246e-14"
     width="1016"
     height="571.5"
     fill="url(#a)"
     style="fill:url(#a);paint-order:fill markers stroke"
     id="rect22"
     x="0" />
  <g
     id="g12963"
     transform="matrix(1,0,0,-1,0,571.50002)" />
  <g
     id="g9543" />
  <circle
     style="opacity:0.15;fill:#1e488e;fill-opacity:1;stroke-width:28.2068;stroke-linejoin:round;filter:url(#filter880)"
     id="path848"
     cx="508"
     cy="285.75"
     r="156.91592"
     transform="matrix(0.36912485,0,0,0.36552105,317.68501,181.30236)" />
  <g
     id="g44"
     clip-path="url(#clipPath48)"
     style="display:inline;fill:none;stroke:#fc7d00;stroke-width:0.883632;stroke-linecap:round;stroke-miterlimit:100000;stroke-opacity:1"
     transform="matrix(2.4197654,0,0,-2.4197654,238.09388,471.46646)">
    <path
       d="m 0,0 c 30.921,-11.059 51.194,-33.074 51.194,-33.074 l 3.071,0.409 C 41.979,-20.172 22.013,-6.656 0,0"
       style="display:inline;fill:none;fill-opacity:1;fill-rule:evenodd;stroke:#fc7d00;stroke-width:0.883632;stroke-linecap:round;stroke-miterlimit:100000;stroke-opacity:1"
       id="path58"
       transform="translate(79.0942,115.1504)" />
    <path
       id="path62"
       style="display:inline;fill:none;fill-opacity:1;fill-rule:evenodd;stroke:#fc7d00;stroke-width:0.884189;stroke-linecap:round;stroke-linejoin:miter;stroke-miterlimit:100000;stroke-dasharray:none;stroke-opacity:1"
       d="m -32.243563,28.114426 c 2.959991,-2.867991 2.990024,-5.980048 2.990024,-5.980048 0,0 -2.379729,0.670883 -6.10172,0.579883 -1.098997,1.829994 -4.454707,3.020203 -7.719698,2.441206 2.928991,-0.945997 3.997054,-3.326564 3.997054,-3.326564 0,0 -3.66053,-0.67139 -5.155527,-1.892387 -0.914997,1.159997 -5.584066,0.793063 -7.47506,-1.098931 2.012994,0.457997 4.606857,-0.181264 5.033854,-0.700261 -3.050991,-1.616997 -3.753709,-4.576937 -3.753709,-4.576937 0,0 -4.606989,-0.213884 -5.948983,-3.6928744 2.043994,1.4039964 4.362069,0.8853574 4.362069,0.8853574 0,0 -1.92129,-3.0207945 -1.70729,-6.1327849 -1.494997,-0.7629979 -3.051254,-3.4480884 -2.960254,-5.00408365 0.945997,2.01399395 2.837287,2.44120585 2.837287,2.44120585 0,0 -0.757951,-7.5145694 2.77904,-12.4765553 3.326006,-4.666 8.190239,-11.616539 9.109865,-14.711954 0.760779,0.09375 -16.298252,-3.915388 -24.663168,-8.466557 11.850944,3.69551 24.192677,5.577252 36.606438,5.581378 12.478464,-0.0022 24.8840683,-1.901595 36.7915343,-5.633153 -7.64468514,4.17296 -15.9379713,7.012148 -24.5233423,8.401977 -0.836539,0.135421 -0.991643,0.208818 -0.230433,0.115061 -4.195376,11.572998 -13.222184,15.3761817 -16.971946,17.9246117 -3.832988,2.6059922 -9.351619,12.9526411 -0.842643,16.8606294 8.508973,3.9089879 23.886538,-7.5799052 23.886538,-7.5799052 0,0 -0.637824,-5.4542621 1.9661678,-7.5682558 2.6049922,-2.1119937 8.7480513,-4.1277734 11.6960423,-6.0447671 2.9479913,-1.916994 9.6318739,-7.468695 10.8598709,-9.680689 2.554994,2.849994 6.878017,5.553703 8.108014,6.2907 -4.963988,0.344 -10.583408,4.043006 -12.0274047,5.1840032 -1.4429958,1.1419967 -2.8974128,2.731679 -2.8774128,3.0236781 0.022,0.2919991 0.6884283,0.6031823 0.9384274,0.6031823 0.2499994,0 0.1871544,0.9595098 -0.104845,1.3345086 -0.2919991,0.3749988 -1.521644,1.8131457 -2.2716416,2.709143 -0.7499979,0.8959973 -5.02289103,8.3773273 -5.20989049,8.7733261 -0.18799941,0.3959988 -0.64677171,0.4166606 -1.45876931,0.3546609 -0.8129976,-0.062 -4.6274182,-0.6251869 -4.6274182,-0.6251869 0,0 -2.2040061,2.312308 -2.3260058,2.6483071 -3.2809905,3.2429906 -6.8185055,6.9376366 -10.7394935,9.6716276 -2.043994,1.769994 -5.216362,2.38037 -5.216362,2.38037 0,0 -2.381221,5.736081 -7.049209,6.987078 z M -4.8901044e-4,4.3311907e-4 c 0,0 1.57318301044,-3.21341911907 2.88517911044,-4.32841581907 -0.983997,0.066 -1.93451419,0.7864653 -2.78551164,1.9674617 -0.85299745,1.1799967 -0.0996674704,2.36095411907 -0.0996674704,2.36095411907 z"
       transform="translate(135.8525,73.3237)" />
    <path
       id="path66"
       style="display:inline;fill:none;fill-opacity:1;fill-rule:evenodd;stroke:#fc7d00;stroke-width:0.883632;stroke-linecap:round;stroke-linejoin:round;stroke-miterlimit:100000;stroke-opacity:1"
       d="m -0.10003618,23.954093 c -3.91886162,0.0042 -7.91606292,-1.140033 -10.46249582,-3.588029 -4.52599,-4.35099 -3.250165,-15.8982117 4.0048204,-22.5131985 6.05546443,-5.5212079 5.60069858,-11.7056885 5.2849647,-13.6065515 a 83.623415,83.623415 0 0 0 1.68787504,0.06213 48.028577,48.028577 0 0 0 2.73503066,0.102256 83.623415,83.623415 0 0 0 11.7620562,-0.837466 C 11.260657,-5.9459981 2.1575489,-1.1917462 -3.6871471e-4,2.4641677e-4 -2.2063643,1.218244 -4.8114572,3.1476977 -6.7324532,8.4706869 c -2.031996,5.6289881 1.4392965,11.5790671 9.9822795,10.6760691 7.7309847,-0.816 16.4823807,-7.251512 17.9323787,-7.94751 -2.378996,2.261994 -7.892791,7.717322 -13.0007805,10.734316 -2.2338706,1.319934 -5.2334573,2.017289 -8.28146068,2.020531 z"
       transform="translate(102.689,64.6567)" />
    <path
       id="path18573"
       style="display:inline;fill:none;fill-opacity:1;fill-rule:evenodd;stroke:#fc7d00;stroke-width:0.883632;stroke-linecap:round;stroke-linejoin:round;stroke-miterlimit:100000;stroke-opacity:1"
       d="m -0.10003618,23.954093 c -3.91886162,0.0042 -7.91606292,-1.140033 -10.46249582,-3.588029 -4.52599,-4.35099 -3.250165,-15.8982117 4.0048204,-22.5131985 6.05546443,-5.5212079 5.60069858,-11.7056885 5.2849647,-13.6065515 0.56240151,0.02639 1.12505522,0.0471 1.68787504,0.06213 0.91052036,0.06006 1.82256746,0.09416 2.73503066,0.102256 3.9355073,-0.002 7.8932542,-0.362296 11.7893482,-0.917878 C 11.287949,-6.0264099 2.1575489,-1.1917462 -3.6871471e-4,2.4641677e-4 -2.2063643,1.218244 -4.8114572,3.1476977 -6.7324532,8.4706869 c -2.031996,5.6289881 1.4392965,11.5790671 9.9822795,10.6760691 7.7309847,-0.816 16.4823807,-7.251512 17.9323787,-7.94751 -2.378996,2.261994 -7.892791,7.717322 -13.0007805,10.734316 -2.2338706,1.319934 -5.2334573,2.017289 -8.28146068,2.020531 z"
       transform="translate(102.689,64.6567)" />
  </g>
</svg>
