<?xml version="1.0" encoding="UTF-8" standalone="no"?>
<svg
   width="3905.4907"
   height="3840"
   version="1.1"
   viewBox="0 0 1033.3278 1016"
   id="svg279"
   xml:space="preserve"
   sodipodi:docname="wallpaper-nethunter-blue-black.svg"
   inkscape:version="1.2.1 (9c6d41e410, 2022-07-14)"
   inkscape:export-filename="wallpaper-nethunter-blue-black.png"
   inkscape:export-xdpi="96"
   inkscape:export-ydpi="96"
   xmlns:inkscape="http://www.inkscape.org/namespaces/inkscape"
   xmlns:sodipodi="http://sodipodi.sourceforge.net/DTD/sodipodi-0.dtd"
   xmlns:xlink="http://www.w3.org/1999/xlink"
   xmlns="http://www.w3.org/2000/svg"
   xmlns:svg="http://www.w3.org/2000/svg"><sodipodi:namedview
     id="namedview348"
     pagecolor="#000000"
     bordercolor="#000000"
     borderopacity="0.25"
     inkscape:showpageshadow="2"
     inkscape:pageopacity="1"
     inkscape:pagecheckerboard="0"
     inkscape:deskcolor="#d1d1d1"
     showgrid="false"
     inkscape:zoom="0.60697364"
     inkscape:cx="1857.5765"
     inkscape:cy="1943.2475"
     inkscape:window-width="1920"
     inkscape:window-height="1112"
     inkscape:window-x="-8"
     inkscape:window-y="-8"
     inkscape:window-maximized="1"
     inkscape:current-layer="svg279" /><defs
     id="defs261"><filter
       id="b"
       x="-0.010417351"
       y="-0.014020336"
       width="1.0208347"
       height="1.0280406"
       color-interpolation-filters="sRGB"><feGaussianBlur
         stdDeviation="6.3684471"
         id="feGaussianBlur242" /></filter><radialGradient
       id="c"
       cx="-510.25043"
       cy="215.29402"
       r="508"
       gradientTransform="matrix(0,0.83447389,-0.83844015,-5.8654232e-6,738.02226,706.56658)"
       gradientUnits="userSpaceOnUse"
       fx="-510.25043"
       fy="215.29402"><stop
         stop-color="#16171c"
         offset="0"
         id="stop245"
         style="stop-color:#272a34;stop-opacity:1" /><stop
         offset="1"
         id="stop247" /></radialGradient><filter
       id="f"
       x="-0.083748424"
       y="-0.096701333"
       width="1.1674968"
       height="1.1934027"
       color-interpolation-filters="sRGB"><feGaussianBlur
         stdDeviation="2.1777382"
         id="feGaussianBlur250" /></filter><filter
       id="e"
       x="-0.041045689"
       y="-0.026859322"
       width="1.0820914"
       height="1.0537186"
       color-interpolation-filters="sRGB"><feGaussianBlur
         stdDeviation="1.5070609"
         id="feGaussianBlur253" /></filter><radialGradient
       id="d"
       cx="593.09998"
       cy="261.72"
       r="23.186001"
       gradientTransform="matrix(1.1544674,0,0,1.1544674,-62.605362,183.58005)"
       gradientUnits="userSpaceOnUse"><stop
         stop-color="#fff"
         stop-opacity=".4"
         offset="0"
         id="stop256" /><stop
         stop-color="#fff"
         stop-opacity="0"
         offset="1"
         id="stop258" /></radialGradient><clipPath
       clipPathUnits="userSpaceOnUse"
       id="clipPath48"><path
         d="M 0,120 H 212.4 V 0 H 0 Z"
         id="path46" /></clipPath><clipPath
       clipPathUnits="userSpaceOnUse"
       id="clipPath1969"><g
         id="g1973"><path
           d="M 279.02274,235.31478 H 568.95008 V 399.11554 H 279.02274 Z"
           id="path1971"
           style="stroke-width:1.36501" /></g></clipPath><clipPath
       clipPathUnits="userSpaceOnUse"
       id="clipPath1975"><g
         id="g1979"><path
           d="M 279.02274,235.31478 H 568.95008 V 399.11554 H 279.02274 Z"
           id="path1977"
           style="stroke-width:1.36501" /></g></clipPath><clipPath
       clipPathUnits="userSpaceOnUse"
       id="clipPath1981"><g
         id="g1985"><path
           d="M 279.02274,235.31478 H 568.95008 V 399.11554 H 279.02274 Z"
           id="path1983"
           style="stroke-width:1.36501" /></g></clipPath><clipPath
       clipPathUnits="userSpaceOnUse"
       id="clipPath1987"><g
         id="g1991"><path
           d="M 279.02274,235.31478 H 568.95008 V 399.11554 H 279.02274 Z"
           id="path1989"
           style="stroke-width:1.36501" /></g></clipPath><clipPath
       clipPathUnits="userSpaceOnUse"
       id="clipPath48-3"><path
         d="M 0,120 H 212.4 V 0 H 0 Z"
         id="path46-6" /></clipPath><clipPath
       clipPathUnits="userSpaceOnUse"
       id="clipPath48-6"><path
         d="M 0,120 H 212.4 V 0 H 0 Z"
         id="path46-2" /></clipPath><clipPath
       clipPathUnits="userSpaceOnUse"
       id="clipPath12707"><g
         id="g12711"><path
           d="M 867.65799,70.203886 H 1591.0891 V 478.92205 H 867.65799 Z"
           id="path12709"
           style="stroke-width:3.40598" /></g></clipPath><clipPath
       clipPathUnits="userSpaceOnUse"
       id="clipPath12713"><g
         id="g12717"><path
           d="M 867.65799,70.203886 H 1591.0891 V 478.92205 H 867.65799 Z"
           id="path12715"
           style="stroke-width:3.40598" /></g></clipPath><clipPath
       clipPathUnits="userSpaceOnUse"
       id="clipPath12719"><g
         id="g12723"><path
           d="M 867.65799,70.203886 H 1591.0891 V 478.92205 H 867.65799 Z"
           id="path12721"
           style="stroke-width:3.40598" /></g></clipPath><filter
       style="color-interpolation-filters:sRGB"
       id="filter12884"
       x="-0.02261399"
       y="-0.033496708"
       width="1.045228"
       height="1.0669934"><feGaussianBlur
         stdDeviation="4.1583822"
         id="feGaussianBlur12886" /></filter><radialGradient
       xlink:href="#c"
       id="radialGradient26654"
       gradientUnits="userSpaceOnUse"
       gradientTransform="matrix(0,0.83447388,-0.83844015,-5.8654233e-6,738.02227,939.5209)"
       cx="-510.25067"
       cy="180.97592"
       fx="-510.25067"
       fy="180.97592"
       r="508" /></defs><path
     id="path12888"
     style="color:#000000;opacity:1;fill:#000000;fill-opacity:1;fill-rule:evenodd;stroke:none;stroke-width:2.64583;stroke-linecap:round;stroke-linejoin:round;stroke-miterlimit:100000;-inkscape-stroke:none;filter:url(#filter12884)"
     d="m 423.40848,330.31494 a 1.323049,1.323049 0 0 0 -0.0202,0.0181 c -0.2175,-0.007 -0.43397,0.009 -0.6475,0.0444 0.0804,6.1e-4 0.16046,-0.008 0.24081,-5.2e-4 l -0.49041,0.0455 c 0.0818,-0.0238 0.16622,-0.0311 0.2496,-0.045 -0.27944,-0.002 -0.55826,0.0239 -0.82734,0.10283 a 1.323049,1.323049 0 0 0 -0.4222,0.21136 c -0.22479,0.16873 -0.41205,0.37771 -0.57723,0.60358 0.0586,-0.0534 0.11164,-0.11285 0.17467,-0.16123 l -0.32711,0.3669 c 0.0444,-0.0735 0.102,-0.13669 0.15244,-0.20567 -0.19436,0.1771 -0.37177,0.37263 -0.51108,0.59635 a 1.323049,1.323049 0 0 0 -0.0103,0.0837 1.323049,1.323049 0 0 0 -0.17105,0.34055 c -0.0735,0.27212 0.0746,0.52015 0.0816,0.79117 a 1.323049,1.323049 0 0 0 0,0.004 c 3e-4,8.1e-4 0,5.5e-4 0,0.002 0.0235,0.79606 0.33679,1.45128 0.93224,1.97508 0.0102,0.0201 0.0193,0.04 0.0295,0.0599 a 1.323049,1.323049 0 0 0 0.73535,0.65164 c 32.29785,11.55143 61.16874,26.58028 85.82681,41.91165 l -4.64882,-1.24333 a 1.323049,1.323049 0 0 0 -1.26348,2.22777 l 4.25245,4.11913 c 5.25453,5.09119 7.52608,10.15833 8.55813,13.75161 0.14744,0.51333 0.26963,0.99644 0.37156,1.44539 -2.96121,-0.60382 -8.03199,-1.37527 -16.3866,-1.29914 -2.53718,-3.29201 -6.43019,-5.76336 -11.06806,-7.2838 -5.27014,-1.72765 -11.45738,-2.29331 -17.6258,-1.19941 l -6.07818,1.07591 a 1.323049,1.323049 0 0 0 -0.17518,2.56263 l 5.87251,1.89704 c 5.37299,1.73538 8.22673,4.74021 9.99215,7.05642 -0.85807,0.18619 -1.3856,0.25491 -3.03134,0.73329 -3.34015,0.97094 -6.98686,2.39968 -10.01541,4.33462 -1.1968,-0.73638 -2.53753,-1.30047 -4.10104,-1.56063 -2.42758,-0.40391 -5.19254,-0.40284 -8.05325,-0.0574 -5.71194,0.68954 -11.90637,2.66971 -15.94011,6.70553 l -3.75998,3.76411 a 1.323049,1.323049 0 0 0 1.22731,2.22416 l 5.1909,-1.18184 c 2.94989,-0.67115 6.67725,-0.55461 9.6852,-0.0258 0.55881,0.0983 0.9097,0.24727 1.41076,0.36845 -5.84815,4.68854 -8.48088,10.02339 -9.38599,12.60647 -1.81551,0.18288 -5.33617,0.67074 -9.38185,2.46135 -4.53146,2.00555 -9.41122,5.62187 -11.85096,11.94655 l -1.78542,4.62711 a 1.323049,1.323049 0 0 0 1.98283,1.56632 l 4.08915,-2.80759 c 3.60818,-2.47841 6.57504,-2.74961 8.88938,-2.70216 -1.88551,3.94835 -4.18529,10.20768 -4.09122,17.23513 -2.68217,1.83878 -5.0564,4.47122 -6.8709,7.56078 -2.14294,3.64853 -3.68213,7.63876 -3.46542,11.34297 l 0.35295,6.03788 a 1.323049,1.323049 0 0 0 2.51871,0.48421 l 2.57245,-5.47409 c 1.3268,-2.8248 2.82234,-4.09992 4.23902,-4.98574 -0.29762,7.70074 0.0558,25.84268 10.36216,40.30142 6.13811,8.61112 13.77759,19.45557 20.02926,29.27624 3.12569,4.91021 5.90497,9.56705 7.96128,13.51856 1.28965,2.47827 1.92321,4.27083 2.50682,5.98258 -5.73438,0.24026 -13.94414,1.12184 -25.06875,2.92334 -13.36673,2.16456 -29.70188,5.37627 -46.66486,9.49761 -33.924,8.24218 -70.25769,19.94914 -90.70712,34.73018 l -10.31462,7.45484 a 1.323049,1.323049 0 0 0 1.27331,2.29753 l 11.79308,-4.78678 c 43.85192,-17.80224 98.64328,-37.07733 203.51781,-37.07733 104.54161,0 196.8511,37.60547 196.8562,37.60753 l 25.50335,10.40453 a 1.323049,1.323049 0 0 0 1.1343,-2.38745 l -24.18819,-13.17646 c 0,0 -73.52733,-40.09844 -153.29813,-46.75632 -14.80862,-42.01247 -47.93747,-56.2319 -60.38133,-64.68907 -5.70785,-3.88066 -13.80374,-14.90023 -16.37264,-25.88628 -1.28598,-5.5 -1.27377,-10.94574 0.60409,-15.67708 1.88133,-4.74012 5.56888,-8.91963 12.42508,-12.06851 13.2045,-6.06618 33.38746,-0.0925 50.15198,8.04912 15.61578,7.5838 27.10571,15.95601 28.71349,17.13952 -0.13213,1.56204 -0.3319,4.72579 0.12765,9.24078 0.60982,5.98946 2.31962,13.34578 7.84965,17.83509 a 1.323049,1.323049 0 0 0 0,0.004 c 5.02659,4.07532 12.72577,7.62753 20.49952,11.13937 7.77559,3.51273 15.6479,6.9571 20.38842,10.0397 4.89069,3.18029 13.25744,9.65352 20.79408,16.19746 3.76448,3.26853 7.36073,6.62684 10.22521,9.55704 2.86459,2.9302 5.01855,5.50733 5.77898,6.8771 l 1.04645,1.88722 a 1.323049,1.323049 0 0 0 2.14199,0.24133 l 1.43867,-1.6061 c 8.4045,-9.37487 23.36399,-18.82871 27.52028,-21.31911 l 4.19458,-2.51251 a 1.323049,1.323049 0 0 0 -0.58756,-2.45308 l -4.87619,-0.339 c -15.96798,-1.10656 -35.69978,-13.83143 -40.22235,-17.40462 -2.36658,-1.87315 -4.81515,-4.18061 -6.59598,-6.07612 -0.57351,-0.61046 -0.92212,-1.05469 -1.32912,-1.54254 0.0224,-0.0102 0.0449,-0.0207 0.0796,-0.0398 0.76665,-0.16638 1.40248,-0.51421 1.83917,-1.05833 0.42761,-0.53289 0.62174,-1.10961 0.7152,-1.47278 0.20335,-0.78896 0.20337,-1.53177 0.15348,-2.21175 -0.098,-1.33671 -0.38619,-2.94645 -1.4826,-4.35426 -1.21824,-1.56466 -5.37221,-6.40324 -7.95714,-9.49141 -0.0857,-0.1028 -0.61935,-0.85222 -1.26142,-1.83761 -0.64197,-0.98541 -1.45382,-2.27158 -2.32751,-3.70262 -1.75194,-2.86924 -3.86711,-6.44141 -5.92056,-9.96166 a 1.323049,1.323049 0 0 0 0,-5.2e-4 1.323049,1.323049 0 0 0 0,-5.2e-4 1.323049,1.323049 0 0 0 0,-5.1e-4 1.323049,1.323049 0 0 0 0,-5.2e-4 c -2.05366,-3.52031 -4.04695,-6.98879 -5.56556,-9.65884 -0.75951,-1.33513 -1.40008,-2.47046 -1.86707,-3.30781 -0.23131,-0.41476 -0.4325,-0.78207 -0.57412,-1.04438 -0.0704,-0.13115 -0.12711,-0.23745 -0.16537,-0.30903 -0.0133,-0.0254 -0.0212,-0.0412 -0.0294,-0.0579 -2.1e-4,-4.6e-4 2e-4,-0.002 0,-0.002 -8.2e-4,-0.002 0,-0.002 0,-0.004 0,-0.005 -0.0103,-0.0141 -0.0103,-0.0181 0,-0.009 -0.0104,-0.0165 -0.0124,-0.0217 v -0.006 c -8.1e-4,-0.001 -9.2e-4,-0.002 0,-0.008 0,-0.003 -0.0139,-0.0243 -0.0139,-0.0243 0,0 -0.0155,0.0103 -0.0165,0.0103 -0.0962,-0.19195 -0.20291,-0.37413 -0.31936,-0.54622 -0.81511,-1.20464 -2.09425,-1.92387 -3.37705,-2.17403 -1.34721,-0.26267 -2.65412,-0.17296 -4.11345,-0.0615 -1.71503,0.13078 -5.60175,0.67014 -9.27798,1.18753 -2.895,0.40743 -4.62467,0.66059 -5.51233,0.79116 -0.55126,-0.57995 -1.40399,-1.47262 -2.84169,-3.04684 -0.97081,-1.06288 -1.95453,-2.16117 -2.69027,-3.02927 -0.36741,-0.43345 -0.677,-0.81699 -0.87075,-1.07384 -0.0459,-0.0614 -0.10481,-0.15783 -0.16123,-0.25321 -9.2e-4,-10e-4 0,-0.003 0,-0.004 l -0.0186,-0.0517 a 1.323049,1.323049 0 0 0 -0.31471,-0.49041 l -0.24495,-0.24081 v -0.002 c -11.29266,-11.16192 -23.60363,-24.02766 -37.45663,-33.73748 a 1.323049,1.323049 0 0 0 0,-0.002 1.323049,1.323049 0 0 0 5.2e-4,-5.1e-4 1.323049,1.323049 0 0 0 0,-5.2e-4 1.323049,1.323049 0 0 0 -5.2e-4,-5.2e-4 1.323049,1.323049 0 0 0 0,-5.1e-4 1.323049,1.323049 0 0 0 0,-5.2e-4 c -0.0102,-0.009 -0.0234,-0.0132 -0.0336,-0.0222 -0.0265,-0.0184 -0.0499,-0.041 -0.0754,-0.0594 l 0.0103,0.01 c -7.08005,-6.07382 -15.89663,-8.01712 -17.87539,-8.42119 -0.7137,-1.64475 -3.26425,-7.0394 -8.05068,-12.68812 45.43399,31.10584 72.1403,60.01443 72.1403,60.01443 l 0.53796,0.58601 a 1.323049,1.323049 0 0 0 1.1498,0.41651 l 14.51332,-1.93321 a 1.323049,1.323049 0 0 0 0.7674,-2.23759 l -2.15594,-2.19419 c -43.05383,-43.7692 -112.68967,-90.91253 -189.72434,-114.22248 0.0173,0.005 1.5e-4,-0.004 -0.0692,-0.0238 l -0.0176,0.12144 a 1.323049,1.323049 0 0 0 -0.26096,-0.17519 c -0.0377,-0.003 -0.0751,0.0135 -0.11317,0.0119 z m 94.49345,59.23308 c 7.77213,6.86664 12.11968,16.60622 12.11968,16.60622 l -0.01,-0.0181 0.31677,0.76481 a 1.323049,1.323049 0 0 0 0.97256,0.79324 l 0.80098,0.15348 c 0,0 10.57916,2.23178 16.80879,7.6264 l 0.046,0.0398 a 1.323049,1.323049 0 0 0 0.12558,0.0997 l 0.063,0.046 v -0.002 c 13.23593,9.22898 25.39111,21.86998 36.78897,33.14165 0.051,0.0988 0.12802,0.27533 0.35657,0.57826 0.30476,0.40413 0.66592,0.84314 1.07435,1.32498 0.81899,0.96617 1.83256,2.09711 2.82929,3.18844 1.99377,2.18314 3.92379,4.20853 3.92379,4.20853 l 0.54829,0.57619 a 1.323049,1.323049 0 0 0 1.15393,0.39636 l 0.78703,-0.11937 v 0.002 c 0,0 3.30736,-0.48803 6.96289,-1.00252 3.65337,-0.51418 7.83882,-1.06343 8.91728,-1.14567 1.27344,-0.0972 2.1913,-0.0648 2.47117,-0.0243 0.18611,0.3623 0.36904,0.70332 0.74155,1.37149 0.47913,0.85908 1.12572,2.00652 1.89085,3.35173 1.52972,2.68955 3.53189,6.17362 5.59759,9.71465 2.06568,3.54117 4.19281,7.13686 5.97844,10.06141 1.78123,2.91734 3.07341,5.02104 4.08502,6.22959 2.6045,3.11145 6.92225,8.18613 7.76439,9.2599 -0.0269,-0.0426 -0.0405,-0.0577 0.0636,0.076 -0.006,-0.008 -0.0567,-0.0672 -0.0636,-0.076 0.0115,0.0182 0.021,0.0305 0.032,0.0563 0.0357,0.0862 0.0856,0.22093 0.13332,0.37258 0.0418,0.13493 0.0532,0.25761 0.0858,0.40256 -0.31813,0.0923 -0.53559,0.0929 -0.91106,0.30696 -0.50148,0.28604 -1.0354,0.64756 -1.53014,1.14774 -0.46454,0.46969 -1.14789,1.33557 -1.23972,2.55281 a 1.323049,1.323049 0 0 0 0,0.0258 c -0.0724,1.0951 0.45328,1.96798 0.55398,2.15026 0.23947,0.43321 0.52184,0.84171 0.84129,1.2671 0.64218,0.85473 1.47941,1.82028 2.4691,2.87373 1.98132,2.10888 4.57161,4.55211 7.21764,6.6461 4.75898,3.76049 20.03615,13.85454 36.07687,17.34675 -5.64306,3.62798 -13.47489,9.06904 -20.3817,16.05173 -3.30485,-4.36979 -8.70744,-9.61508 -15.05748,-15.12879 -7.70397,-6.68911 -16.0777,-13.19628 -21.42815,-16.67547 -5.49512,-3.5734 -13.43085,-6.96911 -21.14961,-10.45621 -7.7162,-3.4859 -15.24103,-7.12266 -19.24999,-10.37249 -3.4784,-2.82478 -5.22755,-8.67421 -5.76709,-13.97331 -0.54106,-5.31348 -0.0243,-9.77666 -0.0243,-9.77666 l 0.10181,-0.8785 a 1.323049,1.323049 0 0 0 -0.47233,-1.16376 c -0.0286,-0.72241 -0.22556,-1.42655 -0.76326,-1.94716 a 1.323049,1.323049 0 0 0 -0.0103,-0.008 c -8.19993,-7.79661 -27.41998,-26.89847 -45.69179,-37.69124 v -0.002 c -9.53642,-5.63408 -22.36276,-8.08564 -34.96324,-7.27191 -12.60201,0.81383 -25.07741,4.91344 -33.61242,13.11858 -8.86221,8.51958 -11.62515,23.25761 -9.23613,38.66586 2.38955,15.41107 10.05411,31.74836 23.20944,43.74306 24.20688,22.07121 17.11989,46.52326 17.11989,46.52326 a 1.323049,1.323049 0 0 0 0,0.008 c -0.4975,1.80595 0.93337,3.64964 2.80603,3.61683 0,0 34.89528,-0.56887 57.02494,2.59054 0.12009,0.0169 0.24166,0.008 0.36277,0.0103 0.0204,0.009 0.0401,0.0175 0.0605,0.0258 0,0.003 0.0103,0.005 0.0103,0.008 a 1.323049,1.323049 0 0 0 0.85887,0.40876 c 38.09947,2.92882 74.89391,13.78371 102.8609,24.25175 -36.88582,-10.187 -89.20921,-21.17287 -146.60242,-21.17287 -54.36255,0 -95.50376,5.21438 -128.69705,12.7031 -2.21289,0.49925 -4.39069,1.00845 -6.53449,1.52704 7.00414,-1.99539 14.05063,-3.879 21.01784,-5.57175 16.80696,-4.08343 33.01726,-7.27252 46.22819,-9.41183 13.20918,-2.13907 23.59461,-3.2083 28.04015,-3.12643 l 1.82159,0.0336 a 1.323049,1.323049 0 0 0 1.33325,-1.52445 l -0.27698,-1.80351 c -0.46913,-3.05087 -2.02138,-6.58573 -4.19716,-10.76678 -2.17956,-4.18843 -5.02967,-8.95585 -8.20984,-13.95161 -6.36033,-9.99156 -14.04121,-20.89034 -20.19463,-29.52274 -11.3799,-15.96463 -9.13898,-41.41763 -9.13898,-41.41763 v 0.008 l 0.21291,-2.12235 a 1.323049,1.323049 0 0 0 -1.60611,-1.42265 l -2.08049,0.46819 a 1.323049,1.323049 0 0 0 -0.0837,0.0222 c 0,0 -0.20844,0.0663 -0.56069,0.19844 -0.35226,0.13215 -0.84832,0.33021 -1.42214,0.59273 1.52219,-1.99832 3.16898,-3.74456 4.41834,-4.38217 l 0.90433,-0.4625 a 1.323049,1.323049 0 0 0 0.71779,-1.26917 l -0.0698,-1.01234 c -0.65299,-9.49608 5.486,-19.56439 5.4963,-19.58124 v -0.008 -0.002 l 1.16789,-1.83761 a 1.323049,1.323049 0 0 0 -0.82734,-2.0004 l -2.13424,-0.47852 a 1.323049,1.323049 0 0 0 -0.01,-0.002 c 0,0 -2.24535,-0.44431 -5.45186,-0.28267 -0.45807,0.0231 -0.9358,0.0587 -1.42937,0.10956 5.39166,-3.38662 11.91618,-3.9314 11.92485,-3.93206 l 1.1436,-0.0537 a 1.323049,1.323049 0 0 0 1.22577,-1.01595 l 0.26717,-1.12603 a 1.323049,1.323049 0 0 0 0,-5.2e-4 1.323049,1.323049 0 0 0 0,-5.2e-4 1.323049,1.323049 0 0 0 0,-5.1e-4 1.323049,1.323049 0 0 0 0,-5.2e-4 c 0,0 2.10476,-9.00801 11.59567,-14.03894 l 1.66398,-0.87901 a 1.323049,1.323049 0 0 0 0.40256,-2.01073 l -1.19373,-1.45263 c -0.98836,-1.2012 -2.26894,-1.73156 -3.5791,-2.22415 -1.07958,-0.40586 -2.41917,-0.70633 -3.77238,-0.99219 0.75338,-0.15664 1.50561,-0.3605 2.25205,-0.45062 2.40944,-0.29084 4.72261,-0.26162 6.42855,0.0222 0.8342,0.13879 1.51902,0.35853 2.00091,0.57361 0.48178,0.21507 0.77031,0.49473 0.69919,0.40463 l 0.96893,1.22576 a 1.323049,1.323049 0 0 0 1.87482,0.20516 l 1.20975,-0.98857 c 1.87928,-1.53488 6.23204,-3.28296 9.89603,-4.34806 3.67869,-1.06935 6.72405,-1.62801 6.72569,-1.62832 l 1.92701,-0.35243 a 1.323049,1.323049 0 0 0 0.97049,-1.8433 l -0.80099,-1.78749 a 1.323049,1.323049 0 0 0 -0.0103,-0.0181 c 0,0 -1.94223,-3.89241 -6.25543,-7.64604 1.79776,0.23463 3.53292,0.57848 5.11183,1.09606 4.34239,1.42358 7.65408,3.84268 9.03097,6.13554 l 0.45837,0.76533 a 1.323049,1.323049 0 0 0 1.16789,0.64337 l 0.89452,-0.0217 c 12.56324,-0.30716 20.35845,1.90893 20.35845,1.90893 l 1.97248,0.55604 a 1.323049,1.323049 0 0 0 1.68207,-1.28726 l -0.0212,-2.05052 a 1.323049,1.323049 0 0 0 0,-0.0202 c 0,0 -0.27074,-5.31082 -3.51142,-11.94449 z m 19.07687,0.76946 c 26.46175,17.20279 49.66922,35.95937 68.28007,54.25922 l -3.36568,0.44855 c -0.22894,-0.24562 -0.79386,-0.84482 -1.68465,-1.7601 -6.23559,-6.40698 -28.44384,-28.30938 -63.22974,-52.94767 z m -32.36081,37.87882 c 10.15584,0.0167 20.15671,2.38701 27.33063,6.62596 8.50633,5.0242 16.49339,11.5825 23.97942,18.14618 -11.57018,-6.15999 -25.65885,-12.32164 -39.36349,-13.76816 -15.54078,-1.64263 -27.11063,3.0021 -33.64808,11.0815 -6.53562,8.07712 -7.84656,19.25535 -4.02921,29.83022 6.88324,19.07333 16.73748,26.57313 24.7003,30.96968 7.51613,4.15176 37.03814,19.74704 49.74167,53.71507 -20.76123,-2.41644 -45.52142,-2.2516 -49.94269,-2.19418 1.12601,-6.69046 2.87038,-28.47765 -19.28203,-48.67558 -12.05473,-10.99128 -19.21452,-26.21647 -21.41264,-40.3934 -2.19763,-14.17395 0.70496,-27.08643 7.55096,-33.66771 7.18984,-6.9119 18.42592,-10.78537 30.0209,-11.53418 1.44933,-0.0936 2.90339,-0.13779 4.35426,-0.1354 z m 86.18544,17.75758 h 0.002 a 1.323049,1.323049 0 0 1 0.002,0.008 c 5.7e-4,0.004 -1.1e-4,0.005 0.007,0.0202 0.0102,0.0255 0.0161,0.0594 0.0253,0.13333 0,0.0369 0.0124,0.15971 0.0124,0.15916 0,-2.5e-4 -0.0103,0.0805 -0.0202,0.15865 a 1.323049,1.323049 0 0 1 -0.0114,0.091 c -0.006,0.0486 -0.0145,0.11328 -0.0145,0.11317 1e-4,-1.7e-4 -0.15151,0.34686 -0.15141,0.34675 0,-1e-5 -0.0399,0.0397 -0.0501,0.0501 a 1.323049,1.323049 0 0 0 0.216,-0.51004 c 0.005,-0.0391 0.006,-0.0462 0.0114,-0.091 a 1.323049,1.323049 0 0 0 -0.0248,-0.47129 c -2.3e-4,-0.002 -0.003,-0.005 -0.003,-0.008 z m -0.4961,1.37872 c -10e-4,10e-4 -0.003,0.003 -0.005,0.005 -5.6e-4,-6.8e-4 -9.9e-4,-0.001 -0.002,-0.002 a 1.323049,1.323049 0 0 0 0.006,-0.003 z m 29.31914,6.68797 c -0.30976,0.17628 -0.89245,0.50798 -0.89245,0.50798 v -0.002 -0.002 c -0.0452,-0.0951 -0.11817,-0.17055 -0.17208,-0.25993 z m 0.53744,21.58524 c -0.18606,0.004 -0.37321,0.0259 -0.55759,0.0661 a 1.323049,1.323049 0 0 0 -0.37621,0.13953 c -0.15069,0.0859 -0.29359,0.18483 -0.42633,0.29662 l 0.0672,-0.0119 c -0.34547,0.16055 -0.67202,0.36519 -0.92862,0.64803 a 1.323049,1.323049 0 0 0 -0.14935,0.19895 c 0,0 -3.5262,5.89389 0.45011,11.39465 3.22169,4.46934 7.14447,7.70142 11.80754,8.01502 l 4.6452,0.31316 a 1.323049,1.323049 0 0 0 0.94671,-2.32803 l -3.54914,-3.01687 c -1.64717,-1.39978 -4.24659,-5.08964 -6.11384,-8.24807 -1.87418,-3.17033 -3.19463,-5.86889 -3.19463,-5.86889 a 1.323049,1.323049 0 0 0 -0.12764,-0.11163 c -0.21395,-0.39616 -0.48944,-0.75714 -0.86093,-1.01389 a 1.323049,1.323049 0 0 0 -0.0419,-0.0279 c -0.47781,-0.30499 -1.03191,-0.45644 -1.5906,-0.44494 z m -0.5824,0.37517 a 1.323049,1.323049 0 0 0 -0.9803,0.47026 l 0.32453,-0.36277 z m 23.19239,25.65374 a 1.323049,1.323049 0 0 0 0.40204,0.40772 l -0.0667,0.38448 v -0.002 c 4.1e-4,2e-4 -0.22913,-0.1599 -0.22893,-0.15968 3.1e-4,2.3e-4 -0.26892,-0.31909 -0.26872,-0.31885 5e-5,1.1e-4 -0.0383,-0.10968 -0.0749,-0.21497 10e-4,-7.7e-4 0.002,-0.001 0.003,-0.002 0.0713,-0.0407 0.15401,-0.0588 0.2341,-0.0946 z" /><path
     id="path12871"
     style="color:#000000;display:inline;opacity:0.4;fill:#00b6fd;fill-opacity:1;fill-rule:evenodd;stroke:none;stroke-width:2.64583;stroke-linecap:round;stroke-linejoin:round;stroke-miterlimit:100000;-inkscape-stroke:none;filter:url(#filter12884)"
     d="m 423.40848,330.31494 a 1.323049,1.323049 0 0 0 -0.0202,0.0181 c -0.2175,-0.007 -0.43397,0.009 -0.6475,0.0444 0.0804,6.1e-4 0.16046,-0.008 0.24081,-5.2e-4 l -0.49041,0.0455 c 0.0818,-0.0238 0.16622,-0.0311 0.2496,-0.045 -0.27944,-0.002 -0.55826,0.0239 -0.82734,0.10283 a 1.323049,1.323049 0 0 0 -0.4222,0.21136 c -0.22479,0.16873 -0.41205,0.37771 -0.57723,0.60358 0.0586,-0.0534 0.11164,-0.11285 0.17467,-0.16123 l -0.32711,0.3669 c 0.0444,-0.0735 0.102,-0.13669 0.15244,-0.20567 -0.19436,0.1771 -0.37177,0.37263 -0.51108,0.59635 a 1.323049,1.323049 0 0 0 -0.0103,0.0837 1.323049,1.323049 0 0 0 -0.17105,0.34055 c -0.0735,0.27212 0.0746,0.52015 0.0816,0.79117 a 1.323049,1.323049 0 0 0 0,0.004 c 3e-4,8.1e-4 0,5.5e-4 0,0.002 0.0235,0.79606 0.33679,1.45128 0.93224,1.97508 0.0102,0.0201 0.0193,0.04 0.0295,0.0599 a 1.323049,1.323049 0 0 0 0.73535,0.65164 c 32.29785,11.55143 61.16874,26.58028 85.82681,41.91165 l -4.64882,-1.24333 a 1.323049,1.323049 0 0 0 -1.26348,2.22777 l 4.25245,4.11913 c 5.25453,5.09119 7.52608,10.15833 8.55813,13.75161 0.14744,0.51333 0.26963,0.99644 0.37156,1.44539 -2.96121,-0.60382 -8.03199,-1.37527 -16.3866,-1.29914 -2.53718,-3.29201 -6.43019,-5.76336 -11.06806,-7.2838 -5.27014,-1.72765 -11.45738,-2.29331 -17.6258,-1.19941 l -6.07818,1.07591 a 1.323049,1.323049 0 0 0 -0.17518,2.56263 l 5.87251,1.89704 c 5.37299,1.73538 8.22673,4.74021 9.99215,7.05642 -0.85807,0.18619 -1.3856,0.25491 -3.03134,0.73329 -3.34015,0.97094 -6.98686,2.39968 -10.01541,4.33462 -1.1968,-0.73638 -2.53753,-1.30047 -4.10104,-1.56063 -2.42758,-0.40391 -5.19254,-0.40284 -8.05325,-0.0574 -5.71194,0.68954 -11.90637,2.66971 -15.94011,6.70553 l -3.75998,3.76411 a 1.323049,1.323049 0 0 0 1.22731,2.22416 l 5.1909,-1.18184 c 2.94989,-0.67115 6.67725,-0.55461 9.6852,-0.0258 0.55881,0.0983 0.9097,0.24727 1.41076,0.36845 -5.84815,4.68854 -8.48088,10.02339 -9.38599,12.60647 -1.81551,0.18288 -5.33617,0.67074 -9.38185,2.46135 -4.53146,2.00555 -9.41122,5.62187 -11.85096,11.94655 l -1.78542,4.62711 a 1.323049,1.323049 0 0 0 1.98283,1.56632 l 4.08915,-2.80759 c 3.60818,-2.47841 6.57504,-2.74961 8.88938,-2.70216 -1.88551,3.94835 -4.18529,10.20768 -4.09122,17.23513 -2.68217,1.83878 -5.0564,4.47122 -6.8709,7.56078 -2.14294,3.64853 -3.68213,7.63876 -3.46542,11.34297 l 0.35295,6.03788 a 1.323049,1.323049 0 0 0 2.51871,0.48421 l 2.57245,-5.47409 c 1.3268,-2.8248 2.82234,-4.09992 4.23902,-4.98574 -0.29762,7.70074 0.0558,25.84268 10.36216,40.30142 6.13811,8.61112 13.77759,19.45557 20.02926,29.27624 3.12569,4.91021 5.90497,9.56705 7.96128,13.51856 1.28965,2.47827 1.92321,4.27083 2.50682,5.98258 -5.73438,0.24026 -13.94414,1.12184 -25.06875,2.92334 -13.36673,2.16456 -29.70188,5.37627 -46.66486,9.49761 -33.924,8.24218 -70.25769,19.94914 -90.70712,34.73018 l -10.31462,7.45484 a 1.323049,1.323049 0 0 0 1.27331,2.29753 l 11.79308,-4.78678 c 43.85192,-17.80224 98.64328,-37.07733 203.51781,-37.07733 104.54161,0 196.8511,37.60547 196.8562,37.60753 l 25.50335,10.40453 a 1.323049,1.323049 0 0 0 1.1343,-2.38745 l -24.18819,-13.17646 c 0,0 -73.52733,-40.09844 -153.29813,-46.75632 -14.80862,-42.01247 -47.93747,-56.2319 -60.38133,-64.68907 -5.70785,-3.88066 -13.80374,-14.90023 -16.37264,-25.88628 -1.28598,-5.5 -1.27377,-10.94574 0.60409,-15.67708 1.88133,-4.74012 5.56888,-8.91963 12.42508,-12.06851 13.2045,-6.06618 33.38746,-0.0925 50.15198,8.04912 15.61578,7.5838 27.10571,15.95601 28.71349,17.13952 -0.13213,1.56204 -0.3319,4.72579 0.12765,9.24078 0.60982,5.98946 2.31962,13.34578 7.84965,17.83509 a 1.323049,1.323049 0 0 0 0,0.004 c 5.02659,4.07532 12.72577,7.62753 20.49952,11.13937 7.77559,3.51273 15.6479,6.9571 20.38842,10.0397 4.89069,3.18029 13.25744,9.65352 20.79408,16.19746 3.76448,3.26853 7.36073,6.62684 10.22521,9.55704 2.86459,2.9302 5.01855,5.50733 5.77898,6.8771 l 1.04645,1.88722 a 1.323049,1.323049 0 0 0 2.14199,0.24133 l 1.43867,-1.6061 c 8.4045,-9.37487 23.36399,-18.82871 27.52028,-21.31911 l 4.19458,-2.51251 a 1.323049,1.323049 0 0 0 -0.58756,-2.45308 l -4.87619,-0.339 c -15.96798,-1.10656 -35.69978,-13.83143 -40.22235,-17.40462 -2.36658,-1.87315 -4.81515,-4.18061 -6.59598,-6.07612 -0.57351,-0.61046 -0.92212,-1.05469 -1.32912,-1.54254 0.0224,-0.0102 0.0449,-0.0207 0.0796,-0.0398 0.76665,-0.16638 1.40248,-0.51421 1.83917,-1.05833 0.42761,-0.53289 0.62174,-1.10961 0.7152,-1.47278 0.20335,-0.78896 0.20337,-1.53177 0.15348,-2.21175 -0.098,-1.33671 -0.38619,-2.94645 -1.4826,-4.35426 -1.21824,-1.56466 -5.37221,-6.40324 -7.95714,-9.49141 -0.0857,-0.1028 -0.61935,-0.85222 -1.26142,-1.83761 -0.64197,-0.98541 -1.45382,-2.27158 -2.32751,-3.70262 -1.75194,-2.86924 -3.86711,-6.44141 -5.92056,-9.96166 a 1.323049,1.323049 0 0 0 0,-5.2e-4 1.323049,1.323049 0 0 0 0,-5.2e-4 1.323049,1.323049 0 0 0 0,-5.1e-4 1.323049,1.323049 0 0 0 0,-5.2e-4 c -2.05366,-3.52031 -4.04695,-6.98879 -5.56556,-9.65884 -0.75951,-1.33513 -1.40008,-2.47046 -1.86707,-3.30781 -0.23131,-0.41476 -0.4325,-0.78207 -0.57412,-1.04438 -0.0704,-0.13115 -0.12711,-0.23745 -0.16537,-0.30903 -0.0133,-0.0254 -0.0212,-0.0412 -0.0294,-0.0579 -2.1e-4,-4.6e-4 2e-4,-0.002 0,-0.002 -8.2e-4,-0.002 0,-0.002 0,-0.004 0,-0.005 -0.0103,-0.0141 -0.0103,-0.0181 0,-0.009 -0.0104,-0.0165 -0.0124,-0.0217 v -0.006 c -8.1e-4,-0.001 -9.2e-4,-0.002 0,-0.008 0,-0.003 -0.0139,-0.0243 -0.0139,-0.0243 0,0 -0.0155,0.0103 -0.0165,0.0103 -0.0962,-0.19195 -0.20291,-0.37413 -0.31936,-0.54622 -0.81511,-1.20464 -2.09425,-1.92387 -3.37705,-2.17403 -1.34721,-0.26267 -2.65412,-0.17296 -4.11345,-0.0615 -1.71503,0.13078 -5.60175,0.67014 -9.27798,1.18753 -2.895,0.40743 -4.62467,0.66059 -5.51233,0.79116 -0.55126,-0.57995 -1.40399,-1.47262 -2.84169,-3.04684 -0.97081,-1.06288 -1.95453,-2.16117 -2.69027,-3.02927 -0.36741,-0.43345 -0.677,-0.81699 -0.87075,-1.07384 -0.0459,-0.0614 -0.10481,-0.15783 -0.16123,-0.25321 -9.2e-4,-10e-4 0,-0.003 0,-0.004 l -0.0186,-0.0517 a 1.323049,1.323049 0 0 0 -0.31471,-0.49041 l -0.24495,-0.24081 v -0.002 c -11.29266,-11.16192 -23.60363,-24.02766 -37.45663,-33.73748 a 1.323049,1.323049 0 0 0 0,-0.002 1.323049,1.323049 0 0 0 5.2e-4,-5.1e-4 1.323049,1.323049 0 0 0 0,-5.2e-4 1.323049,1.323049 0 0 0 -5.2e-4,-5.2e-4 1.323049,1.323049 0 0 0 0,-5.1e-4 1.323049,1.323049 0 0 0 0,-5.2e-4 c -0.0102,-0.009 -0.0234,-0.0132 -0.0336,-0.0222 -0.0265,-0.0184 -0.0499,-0.041 -0.0754,-0.0594 l 0.0103,0.01 c -7.08005,-6.07382 -15.89663,-8.01712 -17.87539,-8.42119 -0.7137,-1.64475 -3.26425,-7.0394 -8.05068,-12.68812 45.43399,31.10584 72.1403,60.01443 72.1403,60.01443 l 0.53796,0.58601 a 1.323049,1.323049 0 0 0 1.1498,0.41651 l 14.51332,-1.93321 a 1.323049,1.323049 0 0 0 0.7674,-2.23759 l -2.15594,-2.19419 c -43.05383,-43.7692 -112.68967,-90.91253 -189.72434,-114.22248 0.0173,0.005 1.5e-4,-0.004 -0.0692,-0.0238 l -0.0176,0.12144 a 1.323049,1.323049 0 0 0 -0.26096,-0.17519 c -0.0377,-0.003 -0.0751,0.0135 -0.11317,0.0119 z m 94.49345,59.23308 c 7.77213,6.86664 12.11968,16.60622 12.11968,16.60622 l -0.01,-0.0181 0.31677,0.76481 a 1.323049,1.323049 0 0 0 0.97256,0.79324 l 0.80098,0.15348 c 0,0 10.57916,2.23178 16.80879,7.6264 l 0.046,0.0398 a 1.323049,1.323049 0 0 0 0.12558,0.0997 l 0.063,0.046 v -0.002 c 13.23593,9.22898 25.39111,21.86998 36.78897,33.14165 0.051,0.0988 0.12802,0.27533 0.35657,0.57826 0.30476,0.40413 0.66592,0.84314 1.07435,1.32498 0.81899,0.96617 1.83256,2.09711 2.82929,3.18844 1.99377,2.18314 3.92379,4.20853 3.92379,4.20853 l 0.54829,0.57619 a 1.323049,1.323049 0 0 0 1.15393,0.39636 l 0.78703,-0.11937 v 0.002 c 0,0 3.30736,-0.48803 6.96289,-1.00252 3.65337,-0.51418 7.83882,-1.06343 8.91728,-1.14567 1.27344,-0.0972 2.1913,-0.0648 2.47117,-0.0243 0.18611,0.3623 0.36904,0.70332 0.74155,1.37149 0.47913,0.85908 1.12572,2.00652 1.89085,3.35173 1.52972,2.68955 3.53189,6.17362 5.59759,9.71465 2.06568,3.54117 4.19281,7.13686 5.97844,10.06141 1.78123,2.91734 3.07341,5.02104 4.08502,6.22959 2.6045,3.11145 6.92225,8.18613 7.76439,9.2599 -0.0269,-0.0426 -0.0405,-0.0577 0.0636,0.076 -0.006,-0.008 -0.0567,-0.0672 -0.0636,-0.076 0.0115,0.0182 0.021,0.0305 0.032,0.0563 0.0357,0.0862 0.0856,0.22093 0.13332,0.37258 0.0418,0.13493 0.0532,0.25761 0.0858,0.40256 -0.31813,0.0923 -0.53559,0.0929 -0.91106,0.30696 -0.50148,0.28604 -1.0354,0.64756 -1.53014,1.14774 -0.46454,0.46969 -1.14789,1.33557 -1.23972,2.55281 a 1.323049,1.323049 0 0 0 0,0.0258 c -0.0724,1.0951 0.45328,1.96798 0.55398,2.15026 0.23947,0.43321 0.52184,0.84171 0.84129,1.2671 0.64218,0.85473 1.47941,1.82028 2.4691,2.87373 1.98132,2.10888 4.57161,4.55211 7.21764,6.6461 4.75898,3.76049 20.03615,13.85454 36.07687,17.34675 -5.64306,3.62798 -13.47489,9.06904 -20.3817,16.05173 -3.30485,-4.36979 -8.70744,-9.61508 -15.05748,-15.12879 -7.70397,-6.68911 -16.0777,-13.19628 -21.42815,-16.67547 -5.49512,-3.5734 -13.43085,-6.96911 -21.14961,-10.45621 -7.7162,-3.4859 -15.24103,-7.12266 -19.24999,-10.37249 -3.4784,-2.82478 -5.22755,-8.67421 -5.76709,-13.97331 -0.54106,-5.31348 -0.0243,-9.77666 -0.0243,-9.77666 l 0.10181,-0.8785 a 1.323049,1.323049 0 0 0 -0.47233,-1.16376 c -0.0286,-0.72241 -0.22556,-1.42655 -0.76326,-1.94716 a 1.323049,1.323049 0 0 0 -0.0103,-0.008 c -8.19993,-7.79661 -27.41998,-26.89847 -45.69179,-37.69124 v -0.002 c -9.53642,-5.63408 -22.36276,-8.08564 -34.96324,-7.27191 -12.60201,0.81383 -25.07741,4.91344 -33.61242,13.11858 -8.86221,8.51958 -11.62515,23.25761 -9.23613,38.66586 2.38955,15.41107 10.05411,31.74836 23.20944,43.74306 24.20688,22.07121 17.11989,46.52326 17.11989,46.52326 a 1.323049,1.323049 0 0 0 0,0.008 c -0.4975,1.80595 0.93337,3.64964 2.80603,3.61683 0,0 34.89528,-0.56887 57.02494,2.59054 0.12009,0.0169 0.24166,0.008 0.36277,0.0103 0.0204,0.009 0.0401,0.0175 0.0605,0.0258 0,0.003 0.0103,0.005 0.0103,0.008 a 1.323049,1.323049 0 0 0 0.85887,0.40876 c 38.09947,2.92882 74.89391,13.78371 102.8609,24.25175 -36.88582,-10.187 -89.20921,-21.17287 -146.60242,-21.17287 -54.36255,0 -95.50376,5.21438 -128.69705,12.7031 -2.21289,0.49925 -4.39069,1.00845 -6.53449,1.52704 7.00414,-1.99539 14.05063,-3.879 21.01784,-5.57175 16.80696,-4.08343 33.01726,-7.27252 46.22819,-9.41183 13.20918,-2.13907 23.59461,-3.2083 28.04015,-3.12643 l 1.82159,0.0336 a 1.323049,1.323049 0 0 0 1.33325,-1.52445 l -0.27698,-1.80351 c -0.46913,-3.05087 -2.02138,-6.58573 -4.19716,-10.76678 -2.17956,-4.18843 -5.02967,-8.95585 -8.20984,-13.95161 -6.36033,-9.99156 -14.04121,-20.89034 -20.19463,-29.52274 -11.3799,-15.96463 -9.13898,-41.41763 -9.13898,-41.41763 v 0.008 l 0.21291,-2.12235 a 1.323049,1.323049 0 0 0 -1.60611,-1.42265 l -2.08049,0.46819 a 1.323049,1.323049 0 0 0 -0.0837,0.0222 c 0,0 -0.20844,0.0663 -0.56069,0.19844 -0.35226,0.13215 -0.84832,0.33021 -1.42214,0.59273 1.52219,-1.99832 3.16898,-3.74456 4.41834,-4.38217 l 0.90433,-0.4625 a 1.323049,1.323049 0 0 0 0.71779,-1.26917 l -0.0698,-1.01234 c -0.65299,-9.49608 5.486,-19.56439 5.4963,-19.58124 v -0.008 -0.002 l 1.16789,-1.83761 a 1.323049,1.323049 0 0 0 -0.82734,-2.0004 l -2.13424,-0.47852 a 1.323049,1.323049 0 0 0 -0.01,-0.002 c 0,0 -2.24535,-0.44431 -5.45186,-0.28267 -0.45807,0.0231 -0.9358,0.0587 -1.42937,0.10956 5.39166,-3.38662 11.91618,-3.9314 11.92485,-3.93206 l 1.1436,-0.0537 a 1.323049,1.323049 0 0 0 1.22577,-1.01595 l 0.26717,-1.12603 a 1.323049,1.323049 0 0 0 0,-5.2e-4 1.323049,1.323049 0 0 0 0,-5.2e-4 1.323049,1.323049 0 0 0 0,-5.1e-4 1.323049,1.323049 0 0 0 0,-5.2e-4 c 0,0 2.10476,-9.00801 11.59567,-14.03894 l 1.66398,-0.87901 a 1.323049,1.323049 0 0 0 0.40256,-2.01073 l -1.19373,-1.45263 c -0.98836,-1.2012 -2.26894,-1.73156 -3.5791,-2.22415 -1.07958,-0.40586 -2.41917,-0.70633 -3.77238,-0.99219 0.75338,-0.15664 1.50561,-0.3605 2.25205,-0.45062 2.40944,-0.29084 4.72261,-0.26162 6.42855,0.0222 0.8342,0.13879 1.51902,0.35853 2.00091,0.57361 0.48178,0.21507 0.77031,0.49473 0.69919,0.40463 l 0.96893,1.22576 a 1.323049,1.323049 0 0 0 1.87482,0.20516 l 1.20975,-0.98857 c 1.87928,-1.53488 6.23204,-3.28296 9.89603,-4.34806 3.67869,-1.06935 6.72405,-1.62801 6.72569,-1.62832 l 1.92701,-0.35243 a 1.323049,1.323049 0 0 0 0.97049,-1.8433 l -0.80099,-1.78749 a 1.323049,1.323049 0 0 0 -0.0103,-0.0181 c 0,0 -1.94223,-3.89241 -6.25543,-7.64604 1.79776,0.23463 3.53292,0.57848 5.11183,1.09606 4.34239,1.42358 7.65408,3.84268 9.03097,6.13554 l 0.45837,0.76533 a 1.323049,1.323049 0 0 0 1.16789,0.64337 l 0.89452,-0.0217 c 12.56324,-0.30716 20.35845,1.90893 20.35845,1.90893 l 1.97248,0.55604 a 1.323049,1.323049 0 0 0 1.68207,-1.28726 l -0.0212,-2.05052 a 1.323049,1.323049 0 0 0 0,-0.0202 c 0,0 -0.27074,-5.31082 -3.51142,-11.94449 z m 19.07687,0.76946 c 26.46175,17.20279 49.66922,35.95937 68.28007,54.25922 l -3.36568,0.44855 c -0.22894,-0.24562 -0.79386,-0.84482 -1.68465,-1.7601 -6.23559,-6.40698 -28.44384,-28.30938 -63.22974,-52.94767 z m -32.36081,37.87882 c 10.15584,0.0167 20.15671,2.38701 27.33063,6.62596 8.50633,5.0242 16.49339,11.5825 23.97942,18.14618 -11.57018,-6.15999 -25.65885,-12.32164 -39.36349,-13.76816 -15.54078,-1.64263 -27.11063,3.0021 -33.64808,11.0815 -6.53562,8.07712 -7.84656,19.25535 -4.02921,29.83022 6.88324,19.07333 16.73748,26.57313 24.7003,30.96968 7.51613,4.15176 37.03814,19.74704 49.74167,53.71507 -20.76123,-2.41644 -45.52142,-2.2516 -49.94269,-2.19418 1.12601,-6.69046 2.87038,-28.47765 -19.28203,-48.67558 -12.05473,-10.99128 -19.21452,-26.21647 -21.41264,-40.3934 -2.19763,-14.17395 0.70496,-27.08643 7.55096,-33.66771 7.18984,-6.9119 18.42592,-10.78537 30.0209,-11.53418 1.44933,-0.0936 2.90339,-0.13779 4.35426,-0.1354 z m 86.18544,17.75758 h 0.002 a 1.323049,1.323049 0 0 1 0.002,0.008 c 5.7e-4,0.004 -1.1e-4,0.005 0.007,0.0202 0.0102,0.0255 0.0161,0.0594 0.0253,0.13333 0,0.0369 0.0124,0.15971 0.0124,0.15916 0,-2.5e-4 -0.0103,0.0805 -0.0202,0.15865 a 1.323049,1.323049 0 0 1 -0.0114,0.091 c -0.006,0.0486 -0.0145,0.11328 -0.0145,0.11317 1e-4,-1.7e-4 -0.15151,0.34686 -0.15141,0.34675 0,-1e-5 -0.0399,0.0397 -0.0501,0.0501 a 1.323049,1.323049 0 0 0 0.216,-0.51004 c 0.005,-0.0391 0.006,-0.0462 0.0114,-0.091 a 1.323049,1.323049 0 0 0 -0.0248,-0.47129 c -2.3e-4,-0.002 -0.003,-0.005 -0.003,-0.008 z m -0.4961,1.37872 c -10e-4,10e-4 -0.003,0.003 -0.005,0.005 -5.6e-4,-6.8e-4 -9.9e-4,-0.001 -0.002,-0.002 a 1.323049,1.323049 0 0 0 0.006,-0.003 z m 29.31914,6.68797 c -0.30976,0.17628 -0.89245,0.50798 -0.89245,0.50798 v -0.002 -0.002 c -0.0452,-0.0951 -0.11817,-0.17055 -0.17208,-0.25993 z m 0.53744,21.58524 c -0.18606,0.004 -0.37321,0.0259 -0.55759,0.0661 a 1.323049,1.323049 0 0 0 -0.37621,0.13953 c -0.15069,0.0859 -0.29359,0.18483 -0.42633,0.29662 l 0.0672,-0.0119 c -0.34547,0.16055 -0.67202,0.36519 -0.92862,0.64803 a 1.323049,1.323049 0 0 0 -0.14935,0.19895 c 0,0 -3.5262,5.89389 0.45011,11.39465 3.22169,4.46934 7.14447,7.70142 11.80754,8.01502 l 4.6452,0.31316 a 1.323049,1.323049 0 0 0 0.94671,-2.32803 l -3.54914,-3.01687 c -1.64717,-1.39978 -4.24659,-5.08964 -6.11384,-8.24807 -1.87418,-3.17033 -3.19463,-5.86889 -3.19463,-5.86889 a 1.323049,1.323049 0 0 0 -0.12764,-0.11163 c -0.21395,-0.39616 -0.48944,-0.75714 -0.86093,-1.01389 a 1.323049,1.323049 0 0 0 -0.0419,-0.0279 c -0.47781,-0.30499 -1.03191,-0.45644 -1.5906,-0.44494 z m -0.5824,0.37517 a 1.323049,1.323049 0 0 0 -0.9803,0.47026 l 0.32453,-0.36277 z m 23.19239,25.65374 a 1.323049,1.323049 0 0 0 0.40204,0.40772 l -0.0667,0.38448 v -0.002 c 4.1e-4,2e-4 -0.22913,-0.1599 -0.22893,-0.15968 3.1e-4,2.3e-4 -0.26892,-0.31909 -0.26872,-0.31885 5e-5,1.1e-4 -0.0383,-0.10968 -0.0749,-0.21497 10e-4,-7.7e-4 0.002,-0.001 0.003,-0.002 0.0713,-0.0407 0.15401,-0.0588 0.2341,-0.0946 z" /><g
     id="g12729"
     transform="matrix(1.0202994,0,0,1.0202994,-737.16214,244.43736)"><path
       id="path58-6"
       style="color:#000000;display:inline;fill:#00b5fd;fill-opacity:1;fill-rule:evenodd;stroke-linecap:round;stroke-miterlimit:100000;-inkscape-stroke:none"
       d="m 1137.4865,85.281237 a 1.50482,1.50482 0 0 0 -0.5429,0.0547 1.50482,1.50482 0 0 0 -0.5627,0.0547 1.50482,1.50482 0 0 0 -0.385,0.425952 1.50482,1.50482 0 0 0 -0.3611,0.398096 1.50482,1.50482 0 0 0 0.012,0.02735 1.50482,1.50482 0 0 0 -0.035,0.04305 1.50482,1.50482 0 0 0 0.9061,1.797002 1.50482,1.50482 0 0 0 0.027,0.05673 c 104.9164,37.523673 173.7657,112.251833 173.7657,112.251833 l 0.5293,0.57637 14.2245,-1.89475 -2.113,-2.1485 c -42.0237,-42.73137 -110.1472,-88.85094 -185.3931,-111.619232 -0.024,-0.0073 -0.048,-0.01597 -0.072,-0.0233 z m 60.4391,27.242203 c 48.4654,23.55473 90.8796,54.65589 120.6387,84.37703 l -6.6151,0.88078 c -1.2477,-1.34752 -44.1921,-47.35602 -114.0236,-85.25781 z m 17.4084,17.94722 4.1678,4.03718 c 7.1714,6.94845 9.0308,14.13129 9.5255,17.42403 -2.3264,-0.54894 -8.2645,-1.76093 -18.3418,-1.60201 -2.2458,-3.20194 -6.0403,-5.66538 -10.6463,-7.17534 -4.9582,-1.62541 -10.8224,-2.16347 -16.6445,-1.13098 l -5.9573,1.0545 5.7562,1.8593 c 6.7218,2.17101 10.2432,6.56054 11.7499,8.91207 -1.1657,0.23841 -2.2541,0.41332 -4.9651,1.20138 -3.4578,1.00515 -7.3096,2.46926 -10.1914,4.47275 -1.1481,-0.85636 -2.5372,-1.43925 -4.2185,-1.719 -2.2197,-0.36933 -4.82,-0.37505 -7.5238,-0.0486 -5.4076,0.6528 -11.2373,2.5755 -14.8613,6.20138 l -3.6872,3.68922 5.0877,-1.15833 c 3.1438,-0.71527 6.9143,-0.58213 10.004,-0.039 1.5319,0.26932 2.8928,0.64127 3.9161,1.0236 -7.6319,5.03917 -10.3378,11.94564 -11.0215,14.1405 -2.7187,0.21534 -16.0514,1.78821 -20.5374,13.41775 l -1.7499,4.53556 4.0078,-2.75223 c 4.8363,-3.32201 9.2113,-3.15772 11.5235,-2.90823 -1.8553,3.4912 -5.1287,10.87685 -4.8319,18.84168 -2.6451,1.64674 -5.0411,4.33233 -6.8694,7.4453 -2.0235,3.44531 -3.4079,7.18532 -3.2207,10.38493 l 0.3459,5.91825 2.5213,-5.36568 c 2.0341,-4.33065 4.7971,-5.85437 6.6683,-6.62682 -0.3657,5.76151 -0.8582,25.98494 9.8729,41.0393 6.0195,8.44465 13.5158,19.08383 19.6678,28.74798 3.0759,4.83206 5.8161,9.42247 7.8596,13.34937 1.6214,3.11575 2.6194,5.63527 3.1858,7.61751 -5.4524,0.10841 -14.353,1.0629 -26.2425,2.98825 -13.0655,2.1158 -29.0465,5.25815 -45.6366,9.28889 -33.1803,8.06148 -68.7376,19.58231 -88.4492,33.83003 l -10.1094,7.30653 11.5585,-4.69105 c 43.0267,-17.46719 97.0095,-36.43588 199.957,-36.43588 102.7755,0 193.4299,36.95503 193.4299,36.95503 l 24.9959,10.19752 -23.7069,-12.9143 c 0,0 -72.4186,-39.47335 -150.5511,-45.75973 -14.2032,-41.32084 -46.3886,-54.97458 -58.984,-63.53475 -6.0392,-4.10594 -13.9723,-14.99575 -16.5802,-26.1487 -1.3039,-5.57648 -1.3169,-11.18736 0.6483,-16.13858 1.9651,-4.95121 5.8816,-9.33065 12.8419,-12.52735 13.6694,-6.27973 33.6944,-0.14578 50.2618,7.90012 15.9316,7.73716 27.964,16.6047 28.9101,17.30501 -0.1112,1.14638 -0.4156,4.71679 0.08,9.5857 0.583,5.72622 2.2489,12.568 7.2224,16.60555 v 0.002 c 4.7041,3.81383 12.1987,7.30619 19.8086,10.74403 7.6098,3.43783 15.3347,6.79816 20.1565,9.93365 4.8995,3.18599 13.098,9.53745 20.5232,15.9846 7.4253,6.44717 14.1809,13.23585 15.9689,16.45665 l 1.0271,1.84968 1.4106,-1.57415 c 8.4546,-9.43079 23.14,-18.6653 27.2711,-21.1406 l 4.1116,-2.46303 -4.7792,-0.33175 c -16.2413,-1.12551 -35.4653,-13.64316 -40.1367,-17.33387 v -0.002 c -2.3833,-1.88641 -4.814,-4.17537 -6.6056,-6.08235 -0.8961,-0.95378 -1.6362,-1.81734 -2.1151,-2.45493 -0.1405,-0.18708 -0.2027,-0.2931 -0.2932,-0.43152 0.1071,-0.0815 0.1839,-0.15398 0.3322,-0.23855 0.5109,-0.29137 1.3449,-0.45888 1.1442,-0.45888 0.5878,0 1.1666,-0.35999 1.4435,-0.70502 0.2769,-0.34503 0.3816,-0.66133 0.4573,-0.95523 0.1515,-0.58779 0.157,-1.14802 0.113,-1.74787 -0.088,-1.19969 -0.3363,-2.47853 -1.1837,-3.56665 -1.1064,-1.42104 -5.2256,-6.22816 -7.7694,-9.26712 -0.4283,-0.51164 -1.9044,-2.76137 -3.629,-5.58601 -1.7247,-2.82463 -3.8009,-6.3322 -5.8164,-9.78727 -2.0156,-3.45508 -3.9716,-6.85911 -5.4625,-9.48035 -0.7455,-1.31061 -1.3753,-2.4261 -1.836,-3.25213 -0.4606,-0.82602 -0.7954,-1.45989 -0.7931,-1.45513 v -0.002 -0.002 c -0.5196,-1.09436 -1.6564,-1.80418 -2.7598,-2.01935 -1.1035,-0.21515 -2.2672,-0.1492 -3.6837,-0.041 -1.5511,0.11829 -5.4136,0.64764 -9.0134,1.15427 -3.1873,0.44858 -5.4405,0.78105 -6.0666,0.87318 -0.417,-0.43889 -1.6091,-1.68703 -3.2577,-3.4922 -0.9575,-1.04833 -1.9279,-2.13257 -2.6682,-3.00598 -0.3702,-0.43671 -0.684,-0.82284 -0.9,-1.10919 -0.216,-0.28634 -0.3478,-0.60281 -0.2461,-0.32263 l -0.1155,-0.31807 -0.2421,-0.23856 c -11.118,-10.98926 -23.1754,-23.58818 -36.6522,-33.01155 v -0.002 c -6.9653,-6.0295 -16.4746,-7.98374 -17.6838,-8.22276 -0.8139,-1.92112 -8.6881,-19.70745 -24.6835,-23.99412 z m 10.4816,6.80663 h 5e-4 c 11.2735,6.41449 17.3481,20.52371 17.3481,20.52371 l 0.3105,0.74959 0.7967,0.15245 c 0,0 10.5603,2.13007 17.0685,7.76591 l 0.059,0.0527 0.064,0.0446 c 13.1642,9.179 25.1534,21.67598 36.3377,32.73248 0.1152,0.1781 0.214,0.402 0.3616,0.59765 0.2741,0.36335 0.6154,0.77993 1.0074,1.2424 0.7841,0.92494 1.7694,2.02465 2.7406,3.08803 1.9423,2.12678 3.828,4.10504 3.828,4.10504 l 0.5373,0.56473 0.7714,-0.11548 c 0,0 3.2443,-0.47714 6.832,-0.98207 3.5877,-0.50494 7.6044,-1.04012 8.8224,-1.133 1.3491,-0.10302 2.3491,-0.10923 2.8788,-0.006 0.5297,0.10329 0.4941,0.10115 0.6149,0.35555 v -0.004 c 0.1615,0.34195 0.4198,0.79927 0.8869,1.63696 0.4672,0.83768 1.0992,1.9596 1.8476,3.27542 1.4968,2.63164 3.4568,6.04182 5.4786,9.5077 2.0218,3.46588 4.1053,6.98598 5.8479,9.83995 1.7425,2.85399 3.0413,4.93491 3.8903,5.94915 2.5652,3.06457 6.8185,8.05212 7.7011,9.18558 0.1472,0.18911 0.5034,1.18248 0.5586,1.93527 0.018,0.24365 3e-4,0.3549 -0.018,0.50192 -0.5384,0.15048 -1.1011,0.22508 -1.6309,0.52725 -0.4283,0.2443 -0.8436,0.52896 -1.2206,0.91015 -0.377,0.38119 -0.7837,0.89062 -0.8438,1.6876 v 0.004 0.006 c -0.054,0.79163 0.1911,1.04869 0.3844,1.3984 0.1933,0.34972 0.4325,0.70073 0.7248,1.08996 0.5848,0.77844 1.3796,1.69738 2.3283,2.70715 1.8973,2.01952 4.4028,4.38184 6.9337,6.38472 4.775,3.77312 21.4065,14.77214 37.771,17.3982 -5.5891,3.48536 -15.5562,10.11211 -23.2769,18.21668 -2.9327,-4.23454 -8.8226,-9.89409 -15.5237,-15.71263 -7.5134,-6.52366 -15.7161,-12.89305 -20.8575,-16.23632 -5.2189,-3.39377 -12.9767,-6.7281 -20.5566,-10.15246 -7.5793,-3.42406 -14.9815,-6.96052 -19.1502,-10.33985 -3.8958,-3.16268 -5.5788,-9.20839 -6.1249,-14.57202 -0.5461,-5.36364 -0.022,-9.86325 -0.022,-9.86325 l 0.1003,-0.86153 -0.4664,-0.34846 a 1.5049705,1.5049705 0 0 0 -0.3591,-1.61821 c -8.0687,-7.67179 -26.8759,-26.32695 -44.5493,-36.7656 -9.0475,-5.34595 -21.3999,-7.7325 -33.5251,-6.94946 -12.1251,0.78303 -24.0653,4.74625 -32.1287,12.49798 -8.2381,7.91959 -10.9687,21.93623 -8.67,36.76205 2.2988,14.82583 9.6949,30.58367 22.3399,42.11305 24.1764,22.04343 17.1541,46.90844 17.1541,46.90844 a 1.5049705,1.5049705 0 0 0 1.4784,1.90437 c 0,0 34.1973,-0.57371 56.0956,2.55268 a 1.5049705,1.5049705 0 0 0 0.3408,0.009 1.505765,1.505765 0 0 0 0.7369,0.30339 1.505765,1.505765 0 0 0 0.1034,0.12105 c 49.8093,3.82898 97.3043,21.39125 125.1464,33.54842 -34.233,-11.00618 -97.9392,-27.94115 -168.117,-27.94115 -89.4142,0 -142.3056,14.34476 -182.8986,29.5548 19.533,-9.47917 45.7742,-17.58098 70.6524,-23.6254 16.508,-4.01078 32.4227,-7.14133 45.4062,-9.24382 12.9834,-2.1025 23.1208,-3.16653 27.7132,-3.08195 l 1.7869,0.0329 -0.2715,-1.76763 c -0.4153,-2.70091 -1.8741,-6.10024 -3.9825,-10.15194 -2.1085,-4.05171 -4.8856,-8.69919 -7.9902,-13.57628 -6.2092,-9.75419 -13.7264,-20.42335 -19.7539,-28.87916 -11.5709,-16.23258 -9.1932,-41.46677 -9.1932,-41.46677 l 0.2087,-2.08013 -2.0386,0.45938 c 0,0 -3.0313,0.89163 -6.1117,3.41977 0.3637,-0.81207 0.6248,-1.61649 1.0899,-2.40832 1.8218,-3.10184 4.3557,-5.85927 6.4531,-6.9297 l 0.8869,-0.45331 -0.068,-0.9922 c -0.682,-9.91725 5.5855,-19.97619 5.5855,-19.97619 l 1.1507,-1.81068 -2.0917,-0.4685 c 0,0 -5.3031,-1.1523 -11.2424,0.88635 5.7539,-6.81504 16.3867,-7.47265 16.3867,-7.47265 l 1.135,-0.0527 0.2614,-1.10362 c 0,0 2.2171,-9.41132 12.0214,-14.60748 l 1.6293,-0.86305 -1.17,-1.42372 c -0.7424,-0.90228 -1.7092,-1.31958 -2.9629,-1.79093 -1.2537,-0.47134 -2.7837,-0.8767 -4.4864,-1.17605 -1.5384,-0.27044 -3.2364,-0.4158 -4.9529,-0.45887 2.5368,-1.12546 5.4335,-1.93923 8.2496,-2.27918 2.4664,-0.29774 4.8285,-0.27674 6.6683,0.0294 1.8398,0.30612 3.0832,0.96684 3.4527,1.43537 l 0.9477,1.20138 1.1872,-0.9689 c 2.1842,-1.78391 6.484,-3.43399 10.1585,-4.50213 3.6745,-1.06815 6.7205,-1.62682 6.7205,-1.62682 l 1.8887,-0.34593 -0.7851,-1.75193 c 0,0 -2.6445,-5.66012 -9.2033,-9.65002 3.4205,0.004 6.7453,0.4935 9.6602,1.44905 4.473,1.46638 7.9614,3.91818 9.5588,6.5782 l 0.4508,0.75162 0.8772,-0.0213 c 12.4806,-0.30514 20.3379,1.92008 20.3379,1.92008 l 1.9337,0.54497 -0.02,-2.01023 c 0,0 -0.2047,-7.95336 -6.4238,-16.50172 z m -8.7439,41.34421 c 10.1519,0.0167 20.1454,2.35977 27.4458,6.67342 12.2349,7.22648 23.939,17.68096 33.3692,26.48653 -3.1527,-1.91146 -6.1778,-3.80113 -10.1267,-5.9299 -11.444,-6.1691 -25.5997,-12.43265 -39.1172,-13.85941 -14.9135,-1.57635 -25.7431,2.85888 -31.8345,10.38696 -6.0913,7.52807 -7.3486,17.97939 -3.7378,27.98217 6.6509,18.42936 15.9532,25.42682 23.6168,29.65813 7.444,4.11194 37.8913,20.09453 50.0957,55.26185 -21.3109,-2.71637 -49.6197,-2.38636 -52.3571,-2.344 0.9584,-4.71189 4.2828,-27.41327 -18.3342,-48.03485 -12.0656,-11.00115 -19.1964,-26.1734 -21.3944,-40.34947 -2.198,-14.17607 0.6058,-27.23309 7.7831,-34.13291 7.3554,-7.07108 18.6436,-10.91347 30.2386,-11.66228 1.4494,-0.0936 2.9024,-0.13863 4.3527,-0.13624 z m 112.9731,49.09137 a 1.505765,1.505765 0 0 0 -0.2244,0.15651 1.505765,1.505765 0 0 0 -0.1134,-0.0395 1.505765,1.505765 0 0 0 -0.053,0.1565 1.505765,1.505765 0 0 0 -0.5526,0.38493 c 0,0 -3.0464,4.98534 0.3849,9.73207 3.0393,4.21703 6.5926,7.05282 10.6093,7.32223 l 4.5528,0.30693 -3.4785,-2.95736 c -1.9168,-1.62895 -4.4024,-5.25705 -6.2677,-8.41218 -1.8652,-3.15511 -3.1797,-5.84177 -3.1797,-5.84177 a 1.505765,1.505765 0 0 0 -0.037,-0.0117 1.505765,1.505765 0 0 0 -0.5055,-0.59562 1.505765,1.505765 0 0 0 -1.135,-0.20108 z m 0.8382,5.55865 c 0.5588,1.0474 0.5901,1.20685 1.4273,2.62308 0.5023,0.84952 1.1131,1.72353 1.6759,2.6013 -0.6883,-0.72402 -1.3841,-1.22046 -2.0583,-2.1561 v -0.002 c -0.7965,-1.10188 -1.0041,-2.12328 -1.0449,-3.06625 z" /></g><g
     id="g1170"
     transform="matrix(2.5779718,0,0,2.5779718,-903.24591,-155.91343)"><g
       id="g44"
       clip-path="url(#clipPath48)"
       style="display:inline;fill:none;stroke:#00b5fc;stroke-width:0.883632;stroke-linecap:round;stroke-miterlimit:100000;stroke-opacity:1"
       transform="matrix(1.3650063,0,0,-1.3650063,406.42611,359.53793)" /></g><g
     shape-rendering="auto"
     id="g271"
     transform="translate(215.59768,33.840178)"
     style="display:inline" /><circle
     cx="622.10364"
     cy="485.74426"
     r="26.767082"
     fill="url(#d)"
     opacity="0.5"
     id="circle273"
     style="display:inline;opacity:0.106457;fill:url(#d);stroke-width:2.57798" /><path
     transform="matrix(0.47321251,0.51515612,-0.94289322,0.35859591,588.56458,86.261635)"
     d="m 609.95,289.88 -15.602,-22.343 -31.767,45.566 29.676,-46.921 -29.113,-3.3253 27.151,-2.3403 -11.549,-24.684 17.565,23.328 54.39,-80.72 -52.299,82.076 27.151,2.3403 -27.151,2.3403 z"
     fill="#ffffff"
     filter="url(#e)"
     opacity="0.2"
     id="path275"
     style="display:inline;opacity:0.106457" /><path
     transform="matrix(0.10149733,0.41716742,-0.72299221,0.12105639,751.75018,206.93648)"
     d="m 609.95,289.88 -15.602,-22.343 -15.602,22.343 11.549,-24.684 -27.151,-2.3403 27.151,-2.3403 -11.549,-24.684 15.602,22.343 15.602,-22.343 -11.549,24.684 27.151,2.3403 -27.151,2.3403 z"
     fill="#ffffff"
     filter="url(#f)"
     opacity="0.3"
     id="path277"
     style="display:inline;opacity:0.106457" /></svg>
