<?xml version="1.0" encoding="UTF-8" standalone="no"?>
<!-- Created with Inkscape (http://www.inkscape.org/) -->

<svg
   viewBox="0 0 500.00001 500.00001"
   version="1.1"
   id="svg5"
   xml:space="preserve"
   sodipodi:docname="Kali_NetHunterPro_Wide_Full_Orange_Black.svg"
   inkscape:version="1.2.1 (9c6d41e410, 2022-07-14)"
   inkscape:export-filename="Kali_NetHunterPro_Wide_Full_Orange_Black.png"
   inkscape:export-xdpi="576"
   inkscape:export-ydpi="576"
   xmlns:inkscape="http://www.inkscape.org/namespaces/inkscape"
   xmlns:sodipodi="http://sodipodi.sourceforge.net/DTD/sodipodi-0.dtd"
   xmlns="http://www.w3.org/2000/svg"
   xmlns:svg="http://www.w3.org/2000/svg"><sodipodi:namedview
     id="namedview189"
     pagecolor="#000000"
     bordercolor="#000000"
     borderopacity="0.25"
     inkscape:showpageshadow="2"
     inkscape:pageopacity="1"
     inkscape:pagecheckerboard="0"
     inkscape:deskcolor="#d1d1d1"
     showgrid="false"
     inkscape:zoom="1.02"
     inkscape:cx="-26.960784"
     inkscape:cy="202.45098"
     inkscape:window-width="1920"
     inkscape:window-height="1112"
     inkscape:window-x="-8"
     inkscape:window-y="-8"
     inkscape:window-maximized="1"
     inkscape:current-layer="svg5" /><defs
     id="defs2"><clipPath
       clipPathUnits="userSpaceOnUse"
       id="clipPath48"><path
         d="M 0,120 H 212.4 V 0 H 0 Z"
         id="path46" /></clipPath><filter
       inkscape:collect="always"
       style="color-interpolation-filters:sRGB"
       id="filter1028"
       x="-0.02732438"
       y="-0.10310754"
       width="1.0546488"
       height="1.1862585"><feGaussianBlur
         inkscape:collect="always"
         stdDeviation="0.37663454"
         id="feGaussianBlur1030" /></filter><filter
       inkscape:collect="always"
       style="color-interpolation-filters:sRGB"
       id="filter1032"
       x="-0.064726515"
       y="-0.09564078"
       width="1.1805006"
       height="1.1365782"><feGaussianBlur
         inkscape:collect="always"
         stdDeviation="1.1080052"
         id="feGaussianBlur1034" /></filter><filter
       id="f"
       x="-0.083748424"
       y="-0.096701333"
       width="1.1674968"
       height="1.1934027"
       color-interpolation-filters="sRGB"><feGaussianBlur
         stdDeviation="2.1777382"
         id="feGaussianBlur250" /></filter><radialGradient
       id="d"
       cx="593.09998"
       cy="261.72"
       r="23.186001"
       gradientTransform="matrix(0.17072324,0,0,0.17072324,-62.842044,-19.992381)"
       gradientUnits="userSpaceOnUse"><stop
         stop-color="#fff"
         stop-opacity=".4"
         offset="0"
         id="stop256" /><stop
         stop-color="#fff"
         stop-opacity="0"
         offset="1"
         id="stop258" /></radialGradient><filter
       id="e"
       x="-0.041045689"
       y="-0.026859322"
       width="1.0820914"
       height="1.0537186"
       color-interpolation-filters="sRGB"><feGaussianBlur
         stdDeviation="1.5070609"
         id="feGaussianBlur253" /></filter></defs><g
     id="g1851"
     inkscape:label="graphics"
     transform="matrix(8.4091277,0,0,8.4091277,21.184607,25.76734)"><g
       id="g3874"
       transform="matrix(0.49155615,0,0,0.49155615,12.431671,20.912355)"
       style="display:inline;opacity:0.24;fill:#fd7d00;fill-opacity:1;stroke:#fc7f00;stroke-width:0.946255;stroke-dasharray:none;stroke-opacity:1;filter:url(#filter1028)"
       inkscape:label="text_bg"><path
         id="path2375"
         style="fill:#fd7d00;fill-opacity:1;stroke:#fc7f00;stroke-width:3.60141;stroke-dasharray:none;stroke-opacity:1"
         class="st0"
         d="m 114.00076,12.999343 -3.90111,4.601307 c -0.59999,0.799999 -1.30054,1.500654 -1.90054,2.300654 v -6.801932 h -2.30065 v 14.200033 h 2.30065 V 22.0019 l 1.4004,-1.100312 4.50128,6.497845 h 2.70077 L 111.3,19.301133 c 1.09999,-1.299999 2.90153,-3.401792 5.40153,-6.30179 z m 9.29864,0.100029 -5.2975,14.300061 h 2.49671 l 1.4004,-4.001136 h 5.50156 l 1.4004,4.001136 h 2.30065 l -5.30151,-14.300061 z m 9.39867,0 v 14.300061 h 8.30236 v -2.000568 h -6.0017 V 13.099372 Z m 10.10287,0 v 14.300061 h 2.30066 V 13.099372 Z m -18.20117,2.000568 c 0.1,0.2 0.20012,0.700341 0.40012,1.200341 0.2,0.499999 0.30011,0.900341 0.40011,1.200341 l 1.30037,3.901108 h -4.20119 l 1.30037,-3.701051 c 0.39999,-0.899999 0.60022,-1.80074 0.80022,-2.600739 z"
         inkscape:label="kali"
         transform="matrix(0.26274591,0,0,0.26274591,-4.4394095,32.546863)" /><path
         id="path2373"
         class="st1"
         d="m 4.8981486,37.470985 c -0.8466657,0 -1.5611448,0.68802 -1.5611448,1.561144 v 10.715624 c 0,0.846666 0.6880208,1.560628 1.5611448,1.560628 H 37.800878 v -0.79375 H 4.8981486 c -0.4233328,0 -0.7673949,-0.343545 -0.7673949,-0.766878 V 39.032129 c 0,-0.423333 0.3440621,-0.767395 0.7673949,-0.767395 H 21.790518 v -0.793749 z m 30.3449284,0 v 0.793749 H 52.17226 c 0.423333,0 0.767395,0.344062 0.767395,0.767395 v 10.715624 c 0,0.423333 -0.344062,0.766878 -0.767395,0.766878 h -3.287352 v 0.79375 h 3.287352 c 0.846666,0 1.561145,-0.687504 1.561145,-1.560628 V 39.032129 c 0,-0.846666 -0.714479,-1.561144 -1.561145,-1.561144 z"
         style="fill:#fd7d00;fill-opacity:1;stroke:#fc7f00;stroke-width:0.946255;stroke-dasharray:none;stroke-opacity:1"
         inkscape:label="border" /><path
         id="path2345"
         style="fill:#fd7d00;fill-opacity:1;stroke:#fc7f00;stroke-width:3.88039;stroke-dasharray:none;stroke-opacity:1"
         class="st0"
         d="M 23.099535,34.799187 V 56.199416 H 26.29836 V 45.098371 c 0,-1.499999 -0.09831,-3.19655 -0.198309,-4.996548 l -0.09915,-1.000172 h 0.19831 L 36.70101,56.199416 h 4.298152 V 34.799187 h -3.198825 v 11.200201 c 0,0.799999 -8.45e-4,1.902292 0.09916,3.302291 0,1.499999 0.09915,2.30043 0.09915,2.50043 h -0.19831 L 27.298532,34.799187 Z m 52.000313,0 v 21.400229 h 3.500602 v -9.699943 h 9.898252 v 9.699943 h 3.500602 V 34.799187 h -3.500602 v 8.798926 H 78.60045 v -8.798926 z m -10.501804,1.599413 -1.198482,3.401447 -2.401274,1.301947 v 1.495947 h 2.202964 v 8.704082 c 0,3.499996 1.597397,5.199169 4.897393,5.199169 0.7,0 1.30119,-0.102621 1.901189,-0.202621 0.6,-0.1 1.100258,-0.19662 1.500258,-0.39662 v -2.603896 c -0.799999,0.3 -1.70043,0.400931 -2.50043,0.400931 -0.699999,0 -1.198568,-0.199241 -1.698567,-0.599241 -0.4,-0.399999 -0.599241,-0.997723 -0.599241,-1.797722 v -8.704082 h 4.599928 V 39.998357 H 66.701854 V 36.3986 Z m 69.399856,0 -1.19848,3.401447 -2.40128,1.301947 v 1.495947 h 2.20297 v 8.704082 c 0,3.499996 1.59739,5.199169 4.89739,5.199169 0.7,0 1.30119,-0.102621 1.90119,-0.202621 0.6,-0.1 1.10026,-0.19662 1.50026,-0.39662 v -2.603896 c -0.8,0.3 -1.70043,0.400931 -2.50043,0.400931 -0.7,0 -1.19857,-0.199241 -1.69857,-0.599241 -0.4,-0.399999 -0.59924,-0.997723 -0.59924,-1.797722 v -8.704082 h 4.59993 v -2.599584 h -4.59993 V 36.3986 Z m -81.897693,3.302292 c -2.299997,0 -4.101791,0.79781 -5.40179,2.297808 -1.299999,1.499999 -2.000344,3.599344 -2.000344,6.199341 0,2.599998 0.703812,4.600188 2.10381,6.100186 1.399999,1.499999 3.397568,2.202965 5.897565,2.202965 1.099999,0 2.299671,-0.201776 3.099671,-0.301776 0.799999,-0.1 1.70043,-0.397551 2.500429,-0.797551 v -2.802206 c -0.999999,0.4 -1.89874,0.701018 -2.698739,0.901017 -0.899999,0.2 -1.698741,0.297465 -2.69874,0.297465 -1.499998,0 -2.601447,-0.497637 -3.401446,-1.297636 -0.8,-0.8 -1.301948,-1.999758 -1.301948,-3.599757 h 10.799269 v -1.901189 c 0,-2.299997 -0.497724,-4.09748 -1.797723,-5.397479 -1.299998,-1.299998 -3.000016,-1.901188 -5.100014,-1.901188 z m 70.300873,0 c -1.1,0 -2.10052,0.199241 -3.00052,0.599241 -0.9,0.399999 -1.5995,0.997723 -2.0995,1.797722 h -0.20262 l -0.50008,-2.099498 h -2.69874 v 16.201059 h 3.40144 v -8.10053 c 0,-1.999998 0.30018,-3.398153 1.00018,-4.298152 0.7,-0.899999 1.69882,-1.301948 3.19882,-1.301948 1.1,0 1.90128,0.301018 2.40128,0.901017 0.5,0.599999 0.79755,1.602207 0.79755,2.802206 v 9.997407 h 3.5006 V 45.598457 c 0,-3.899996 -1.89842,-5.897565 -5.79841,-5.897565 z m 28.19881,0 c -2.3,0 -4.10179,0.79781 -5.40179,2.297808 -1.3,1.499999 -1.99603,3.599344 -1.99603,6.199341 0,2.599998 0.6995,4.600188 2.09949,6.100186 1.4,1.499999 3.39757,2.202965 5.89757,2.202965 1.1,0 2.39883,-0.201776 3.19883,-0.301776 0.79999,-0.1 1.70043,-0.397551 2.50042,-0.797551 v -2.802206 c -0.99999,0.4 -1.89874,0.701018 -2.69873,0.901017 -0.9,0.2 -1.69875,0.297465 -2.69874,0.297465 -1.5,0 -2.60145,-0.497637 -3.40145,-1.297636 -0.8,-0.8 -1.29764,-1.999758 -1.29764,-3.599757 h 10.79927 v -1.901189 c 0,-2.299997 -0.60119,-4.09748 -1.90119,-5.397479 -1.3,-1.299998 -3.00001,-1.901188 -5.10001,-1.901188 z m 19.09811,0 c -1,0 -1.99959,0.301017 -2.59959,0.901017 -0.9,0.599999 -1.5995,1.297809 -2.0995,2.297808 h -0.19831 l -0.50008,-2.90136 h -2.69874 v 16.101904 h 3.39713 V 47.5988 c 0,-1.399998 0.40195,-2.600602 1.30195,-3.500601 0.8,-0.899999 1.89798,-1.297637 3.29798,-1.297637 0.5,0 1.00026,0.09831 1.50026,0.19831 l 0.30178,-3.198825 c -0.4,-0.1 -1.00288,-0.09915 -1.70288,-0.09915 z m -73.797164,0.297465 v 10.600959 c 0,1.899998 0.500259,3.401619 1.500258,4.401618 0.999999,0.999999 2.397309,1.500258 4.397306,1.500258 1.1,0 2.20052,-0.09924 3.00052,-0.599241 0.8,-0.5 1.50034,-1.002035 2.00034,-1.802034 h 0.20262 l 0.50009,2.099499 h 2.79789 V 39.998357 h -3.5006 v 8.100529 c 0,1.999998 -0.30017,3.402464 -1.00017,4.302464 -0.7,0.899999 -1.79883,1.297636 -3.19883,1.297636 -1.1,0 -1.90127,-0.301017 -2.40127,-0.901017 -0.500001,-0.599999 -0.797553,-1.597895 -0.797553,-2.797894 V 39.998357 Z m -43.800629,2.302119 c 1.099999,0 1.999585,0.400173 2.599585,1.000172 0.699999,0.599999 1.000172,1.700517 1.000172,3.000516 h -7.397823 c 0.1,-1.299999 0.498482,-2.300517 1.198482,-3.000516 0.599999,-0.699999 1.499585,-1.000172 2.599584,-1.000172 z m 98.499683,0 c 1.1,0 1.89958,0.400173 2.59958,1.000172 0.7,0.599999 1.00018,1.700517 1.00018,3.000516 h -7.39783 c 0.1,-1.299999 0.49848,-2.300517 1.19848,-3.000516 0.6,-0.699999 1.49959,-1.000172 2.59959,-1.000172 z"
         inkscape:label="nethunter"
         transform="matrix(0.24385558,0,0,0.24385558,4.820206,33.460311)" /><path
         id="path2363"
         style="fill:#fd7d00;fill-opacity:1;stroke:#fc7f00;stroke-width:5.42712;stroke-dasharray:none;stroke-opacity:1"
         class="st0"
         d="m 182.49768,34.802646 v 21.398661 h 3.50313 v -8.001133 h 2.20077 c 2.79999,0 4.80082,-0.702819 6.30081,-1.802818 1.5,-1.099999 2.19474,-2.894921 2.19474,-5.094919 0,-2.199998 -0.69576,-3.801977 -1.99576,-4.901976 -1.3,-1.099999 -3.29935,-1.597815 -5.99934,-1.597815 z m 3.50313,2.900185 h 2.59871 c 1.6,0 2.80314,0.198395 3.50314,0.898394 0.7,0.7 1.09736,1.597685 1.09736,2.797684 0,1.299998 -0.40237,2.300185 -1.30237,2.900184 -0.89999,0.6 -2.19755,0.898395 -3.99755,0.898395 h -1.89929 z m 22.79751,1.995761 c -1,0 -1.89872,0.298395 -2.59871,0.898394 -0.9,0.6 -1.59827,1.303267 -2.09827,2.303266 h -0.19897 l -0.50045,-2.900185 h -2.70121 v 16.098739 h 3.40063 v -8.501581 c 0,-1.399999 0.39634,-2.597106 1.29634,-3.497105 0.8,-0.899999 1.90417,-1.30237 3.30416,-1.30237 0.5,0 0.99532,0.105003 1.49532,0.205003 l 0.30147,-3.201659 c -0.4,-0.1 -1.00031,-0.102502 -1.70031,-0.102502 z m 11.50426,0 c -2.49999,0 -4.4039,0.700766 -5.70389,2.200764 -1.3,1.499999 -1.99577,3.598319 -1.99577,6.198316 0,1.699999 0.2984,3.304031 0.8984,4.504029 0.6,1.199999 1.60121,2.200186 2.70121,2.900185 1.1,0.7 2.49755,1.000896 3.99755,1.000896 2.5,0 4.39787,-0.700766 5.69787,-2.200764 1.3,-1.499999 2.00179,-3.604348 2.00179,-6.204346 0,-2.599997 -0.70179,-4.595816 -2.00179,-6.095814 -1.4,-1.499999 -3.29537,-2.303266 -5.59537,-2.303266 z m -0.1025,2.803713 c 2.7,0 4.10006,1.895371 4.10006,5.595367 0,3.699997 -1.40006,5.601397 -4.10006,5.601397 -2.7,0 -4.10005,-1.9014 -4.10005,-5.601397 0,-1.799998 0.40089,-3.196526 1.00089,-4.196525 0.6,-0.899999 1.69916,-1.398842 3.09916,-1.398842 z"
         inkscape:label="pro"
         transform="matrix(0.17435674,0,0,0.17435674,7.5405647,42.671597)" /></g><g
       id="g467"
       transform="matrix(0.49155614,0,0,0.49155614,12.431675,20.912355)"
       style="display:inline;fill:#fc7f00;fill-opacity:1"
       inkscape:label="text_fg"><path
         id="path459"
         style="fill:#fc7f00;fill-opacity:1"
         class="st0"
         d="m 114.00076,12.999343 -3.90111,4.601307 c -0.59999,0.799999 -1.30054,1.500654 -1.90054,2.300654 v -6.801932 h -2.30065 v 14.200033 h 2.30065 V 22.0019 l 1.4004,-1.100312 4.50128,6.497845 h 2.70077 L 111.3,19.301133 c 1.09999,-1.299999 2.90153,-3.401792 5.40153,-6.30179 z m 9.29864,0.100029 -5.2975,14.300061 h 2.49671 l 1.4004,-4.001136 h 5.50156 l 1.4004,4.001136 h 2.30065 l -5.30151,-14.300061 z m 9.39867,0 v 14.300061 h 8.30236 v -2.000568 h -6.0017 V 13.099372 Z m 10.10287,0 v 14.300061 h 2.30066 V 13.099372 Z m -18.20117,2.000568 c 0.1,0.2 0.20012,0.700341 0.40012,1.200341 0.2,0.499999 0.30011,0.900341 0.40011,1.200341 l 1.30037,3.901108 h -4.20119 l 1.30037,-3.701051 c 0.39999,-0.899999 0.60022,-1.80074 0.80022,-2.600739 z"
         inkscape:label="kali"
         transform="matrix(0.26274591,0,0,0.26274591,-4.4394095,32.546863)" /><path
         id="path461"
         class="st1"
         d="m 4.8981486,37.470985 c -0.8466657,0 -1.5611448,0.68802 -1.5611448,1.561144 v 10.715624 c 0,0.846666 0.6880208,1.560628 1.5611448,1.560628 H 37.800878 v -0.79375 H 4.8981486 c -0.4233328,0 -0.7673949,-0.343545 -0.7673949,-0.766878 V 39.032129 c 0,-0.423333 0.3440621,-0.767395 0.7673949,-0.767395 H 21.790518 v -0.793749 z m 30.3449284,0 v 0.793749 H 52.17226 c 0.423333,0 0.767395,0.344062 0.767395,0.767395 v 10.715624 c 0,0.423333 -0.344062,0.766878 -0.767395,0.766878 h -3.287352 v 0.79375 h 3.287352 c 0.846666,0 1.561145,-0.687504 1.561145,-1.560628 V 39.032129 c 0,-0.846666 -0.714479,-1.561144 -1.561145,-1.561144 z"
         style="fill:#fc7f00;fill-opacity:1;stroke-width:0.264583"
         inkscape:label="border" /><path
         id="path463"
         style="fill:#fc7f00;fill-opacity:1"
         class="st0"
         d="M 23.099535,34.799187 V 56.199416 H 26.29836 V 45.098371 c 0,-1.499999 -0.09831,-3.19655 -0.198309,-4.996548 l -0.09915,-1.000172 h 0.19831 L 36.70101,56.199416 h 4.298152 V 34.799187 h -3.198825 v 11.200201 c 0,0.799999 -8.45e-4,1.902292 0.09916,3.302291 0,1.499999 0.09915,2.30043 0.09915,2.50043 h -0.19831 L 27.298532,34.799187 Z m 52.000313,0 v 21.400229 h 3.500602 v -9.699943 h 9.898252 v 9.699943 h 3.500602 V 34.799187 h -3.500602 v 8.798926 H 78.60045 v -8.798926 z m -10.501804,1.599413 -1.198482,3.401447 -2.401274,1.301947 v 1.495947 h 2.202964 v 8.704082 c 0,3.499996 1.597397,5.199169 4.897393,5.199169 0.7,0 1.30119,-0.102621 1.901189,-0.202621 0.6,-0.1 1.100258,-0.19662 1.500258,-0.39662 v -2.603896 c -0.799999,0.3 -1.70043,0.400931 -2.50043,0.400931 -0.699999,0 -1.198568,-0.199241 -1.698567,-0.599241 -0.4,-0.399999 -0.599241,-0.997723 -0.599241,-1.797722 v -8.704082 h 4.599928 V 39.998357 H 66.701854 V 36.3986 Z m 69.399856,0 -1.19848,3.401447 -2.40128,1.301947 v 1.495947 h 2.20297 v 8.704082 c 0,3.499996 1.59739,5.199169 4.89739,5.199169 0.7,0 1.30119,-0.102621 1.90119,-0.202621 0.6,-0.1 1.10026,-0.19662 1.50026,-0.39662 v -2.603896 c -0.8,0.3 -1.70043,0.400931 -2.50043,0.400931 -0.7,0 -1.19857,-0.199241 -1.69857,-0.599241 -0.4,-0.399999 -0.59924,-0.997723 -0.59924,-1.797722 v -8.704082 h 4.59993 v -2.599584 h -4.59993 V 36.3986 Z m -81.897693,3.302292 c -2.299997,0 -4.101791,0.79781 -5.40179,2.297808 -1.299999,1.499999 -2.000344,3.599344 -2.000344,6.199341 0,2.599998 0.703812,4.600188 2.10381,6.100186 1.399999,1.499999 3.397568,2.202965 5.897565,2.202965 1.099999,0 2.299671,-0.201776 3.099671,-0.301776 0.799999,-0.1 1.70043,-0.397551 2.500429,-0.797551 v -2.802206 c -0.999999,0.4 -1.89874,0.701018 -2.698739,0.901017 -0.899999,0.2 -1.698741,0.297465 -2.69874,0.297465 -1.499998,0 -2.601447,-0.497637 -3.401446,-1.297636 -0.8,-0.8 -1.301948,-1.999758 -1.301948,-3.599757 h 10.799269 v -1.901189 c 0,-2.299997 -0.497724,-4.09748 -1.797723,-5.397479 -1.299998,-1.299998 -3.000016,-1.901188 -5.100014,-1.901188 z m 70.300873,0 c -1.1,0 -2.10052,0.199241 -3.00052,0.599241 -0.9,0.399999 -1.5995,0.997723 -2.0995,1.797722 h -0.20262 l -0.50008,-2.099498 h -2.69874 v 16.201059 h 3.40144 v -8.10053 c 0,-1.999998 0.30018,-3.398153 1.00018,-4.298152 0.7,-0.899999 1.69882,-1.301948 3.19882,-1.301948 1.1,0 1.90128,0.301018 2.40128,0.901017 0.5,0.599999 0.79755,1.602207 0.79755,2.802206 v 9.997407 h 3.5006 V 45.598457 c 0,-3.899996 -1.89842,-5.897565 -5.79841,-5.897565 z m 28.19881,0 c -2.3,0 -4.10179,0.79781 -5.40179,2.297808 -1.3,1.499999 -1.99603,3.599344 -1.99603,6.199341 0,2.599998 0.6995,4.600188 2.09949,6.100186 1.4,1.499999 3.39757,2.202965 5.89757,2.202965 1.1,0 2.39883,-0.201776 3.19883,-0.301776 0.79999,-0.1 1.70043,-0.397551 2.50042,-0.797551 v -2.802206 c -0.99999,0.4 -1.89874,0.701018 -2.69873,0.901017 -0.9,0.2 -1.69875,0.297465 -2.69874,0.297465 -1.5,0 -2.60145,-0.497637 -3.40145,-1.297636 -0.8,-0.8 -1.29764,-1.999758 -1.29764,-3.599757 h 10.79927 v -1.901189 c 0,-2.299997 -0.60119,-4.09748 -1.90119,-5.397479 -1.3,-1.299998 -3.00001,-1.901188 -5.10001,-1.901188 z m 19.09811,0 c -1,0 -1.99959,0.301017 -2.59959,0.901017 -0.9,0.599999 -1.5995,1.297809 -2.0995,2.297808 h -0.19831 l -0.50008,-2.90136 h -2.69874 v 16.101904 h 3.39713 V 47.5988 c 0,-1.399998 0.40195,-2.600602 1.30195,-3.500601 0.8,-0.899999 1.89798,-1.297637 3.29798,-1.297637 0.5,0 1.00026,0.09831 1.50026,0.19831 l 0.30178,-3.198825 c -0.4,-0.1 -1.00288,-0.09915 -1.70288,-0.09915 z m -73.797164,0.297465 v 10.600959 c 0,1.899998 0.500259,3.401619 1.500258,4.401618 0.999999,0.999999 2.397309,1.500258 4.397306,1.500258 1.1,0 2.20052,-0.09924 3.00052,-0.599241 0.8,-0.5 1.50034,-1.002035 2.00034,-1.802034 h 0.20262 l 0.50009,2.099499 h 2.79789 V 39.998357 h -3.5006 v 8.100529 c 0,1.999998 -0.30017,3.402464 -1.00017,4.302464 -0.7,0.899999 -1.79883,1.297636 -3.19883,1.297636 -1.1,0 -1.90127,-0.301017 -2.40127,-0.901017 -0.500001,-0.599999 -0.797553,-1.597895 -0.797553,-2.797894 V 39.998357 Z m -43.800629,2.302119 c 1.099999,0 1.999585,0.400173 2.599585,1.000172 0.699999,0.599999 1.000172,1.700517 1.000172,3.000516 h -7.397823 c 0.1,-1.299999 0.498482,-2.300517 1.198482,-3.000516 0.599999,-0.699999 1.499585,-1.000172 2.599584,-1.000172 z m 98.499683,0 c 1.1,0 1.89958,0.400173 2.59958,1.000172 0.7,0.599999 1.00018,1.700517 1.00018,3.000516 h -7.39783 c 0.1,-1.299999 0.49848,-2.300517 1.19848,-3.000516 0.6,-0.699999 1.49959,-1.000172 2.59959,-1.000172 z"
         inkscape:label="nethunter"
         transform="matrix(0.24385558,0,0,0.24385558,4.820206,33.460311)" /><path
         id="path465"
         style="fill:#fc7f00;fill-opacity:1"
         class="st0"
         d="m 182.49768,34.802646 v 21.398661 h 3.50313 v -8.001133 h 2.20077 c 2.79999,0 4.80082,-0.702819 6.30081,-1.802818 1.5,-1.099999 2.19474,-2.894921 2.19474,-5.094919 0,-2.199998 -0.69576,-3.801977 -1.99576,-4.901976 -1.3,-1.099999 -3.29935,-1.597815 -5.99934,-1.597815 z m 3.50313,2.900185 h 2.59871 c 1.6,0 2.80314,0.198395 3.50314,0.898394 0.7,0.7 1.09736,1.597685 1.09736,2.797684 0,1.299998 -0.40237,2.300185 -1.30237,2.900184 -0.89999,0.6 -2.19755,0.898395 -3.99755,0.898395 h -1.89929 z m 22.79751,1.995761 c -1,0 -1.89872,0.298395 -2.59871,0.898394 -0.9,0.6 -1.59827,1.303267 -2.09827,2.303266 h -0.19897 l -0.50045,-2.900185 h -2.70121 v 16.098739 h 3.40063 v -8.501581 c 0,-1.399999 0.39634,-2.597106 1.29634,-3.497105 0.8,-0.899999 1.90417,-1.30237 3.30416,-1.30237 0.5,0 0.99532,0.105003 1.49532,0.205003 l 0.30147,-3.201659 c -0.4,-0.1 -1.00031,-0.102502 -1.70031,-0.102502 z m 11.50426,0 c -2.49999,0 -4.4039,0.700766 -5.70389,2.200764 -1.3,1.499999 -1.99577,3.598319 -1.99577,6.198316 0,1.699999 0.2984,3.304031 0.8984,4.504029 0.6,1.199999 1.60121,2.200186 2.70121,2.900185 1.1,0.7 2.49755,1.000896 3.99755,1.000896 2.5,0 4.39787,-0.700766 5.69787,-2.200764 1.3,-1.499999 2.00179,-3.604348 2.00179,-6.204346 0,-2.599997 -0.70179,-4.595816 -2.00179,-6.095814 -1.4,-1.499999 -3.29537,-2.303266 -5.59537,-2.303266 z m -0.1025,2.803713 c 2.7,0 4.10006,1.895371 4.10006,5.595367 0,3.699997 -1.40006,5.601397 -4.10006,5.601397 -2.7,0 -4.10005,-1.9014 -4.10005,-5.601397 0,-1.799998 0.40089,-3.196526 1.00089,-4.196525 0.6,-0.899999 1.69916,-1.398842 3.09916,-1.398842 z"
         inkscape:label="pro"
         transform="matrix(0.17435674,0,0,0.17435674,7.5405647,42.671597)" /></g><g
       id="g44"
       clip-path="url(#clipPath48)"
       style="display:inline;opacity:0.4;fill:none;fill-opacity:1;stroke:#fc7f00;stroke-width:1.32545;stroke-linecap:round;stroke-miterlimit:100000;stroke-dasharray:none;stroke-opacity:1;filter:url(#filter1032)"
       transform="matrix(0.39923606,0,0,-0.39923606,-16.067784,53.221833)"
       inkscape:label="dragon_bg"><path
         d="m 0,0 c 30.921,-11.059 51.194,-33.074 51.194,-33.074 l 3.071,0.409 C 41.979,-20.172 22.013,-6.656 0,0"
         style="display:inline;fill:none;fill-opacity:1;fill-rule:evenodd;stroke:#fc7f00;stroke-width:1.32545;stroke-linecap:round;stroke-miterlimit:100000;stroke-dasharray:none;stroke-opacity:1"
         id="path58"
         transform="translate(79.0942,115.1504)" /><path
         d="M 0,0 C 0,0 1.573,-3.213 2.885,-4.328 1.901,-4.262 0.95,-3.541 0.099,-2.36 -0.754,-1.18 0,0 0,0 m -17.698,-25.908 c -4.064,12.186 -13.416,16.095 -17.249,18.7 -3.833,2.606 -9.352,12.953 -0.843,16.861 8.509,3.909 23.887,-7.58 23.887,-7.58 0,0 -0.639,-5.455 1.965,-7.569 2.605,-2.112 8.748,-4.127 11.696,-6.044 2.948,-1.917 9.632,-7.469 10.86,-9.681 2.555,2.85 6.879,5.554 8.109,6.291 -4.964,0.344 -10.584,4.043 -12.028,5.184 -1.443,1.142 -2.898,2.731 -2.878,3.023 0.022,0.292 0.689,0.604 0.939,0.604 0.25,0 0.187,0.959 -0.105,1.334 -0.292,0.375 -1.521,1.813 -2.271,2.709 -0.75,0.896 -5.023,8.378 -5.21,8.774 -0.188,0.396 -0.647,0.416 -1.459,0.354 -0.813,-0.062 -4.627,-0.625 -4.627,-0.625 0,0 -2.204,2.312 -2.326,2.648 -3.281,3.243 -6.819,6.938 -10.74,9.672 -2.044,1.77 -5.217,2.38 -5.217,2.38 0,0 -2.38,5.736 -7.048,6.987 2.96,-2.868 2.99,-5.98 2.99,-5.98 0,0 -2.38,0.671 -6.102,0.58 -1.099,1.83 -4.455,3.02 -7.72,2.441 2.929,-0.946 3.997,-3.326 3.997,-3.326 0,0 -3.661,-0.671 -5.156,-1.892 -0.915,1.16 -5.584,0.793 -7.475,-1.099 2.013,0.458 4.607,-0.182 5.034,-0.701 -3.051,-1.617 -3.753,-4.577 -3.753,-4.577 0,0 -4.607,-0.213 -5.949,-3.692 2.044,1.404 4.362,0.885 4.362,0.885 0,0 -1.922,-3.021 -1.708,-6.133 -1.495,-0.763 -3.051,-3.448 -2.96,-5.004 0.946,2.014 2.838,2.441 2.838,2.441 0,0 -0.758,-7.514 2.779,-12.476 3.537,-4.962 8.816,-12.511 9.238,-15.256 -5.701,0.105 -36.048,-5.291 -47.394,-13.492 12.649,5.135 28.594,10.73 58.874,10.73 30.281,0 56.958,-10.883 56.958,-10.883 0,0 -21.387,11.65 -44.308,13.412"
         style="display:inline;fill:none;fill-opacity:1;fill-rule:evenodd;stroke:#fc7f00;stroke-width:1.32545;stroke-linecap:round;stroke-linejoin:miter;stroke-miterlimit:100000;stroke-dasharray:none;stroke-opacity:1"
         id="path62"
         transform="translate(135.8525,73.3237)" /><path
         d="m 0,0 c -2.206,1.218 -4.811,3.148 -6.732,8.471 -2.032,5.629 1.439,11.579 9.982,10.676 7.731,-0.816 16.482,-7.252 17.932,-7.948 -2.379,2.262 -7.892,7.717 -13,10.734 -5.106,3.017 -14.218,2.785 -18.745,-1.567 -4.526,-4.351 -3.25,-15.898 4.005,-22.513 7.254,-6.614 5.165,-14.216 5.165,-14.216 0,0 10.04,0.174 16.54,-0.754 C 11.665,-6.151 2.205,-1.218 0,0"
         style="display:inline;fill:none;fill-opacity:1;fill-rule:evenodd;stroke:#fc7f00;stroke-width:1.32545;stroke-linecap:round;stroke-linejoin:round;stroke-miterlimit:100000;stroke-dasharray:none;stroke-opacity:1"
         id="path66"
         transform="translate(102.689,64.6567)" /></g><g
       id="g457"
       clip-path="url(#clipPath48)"
       style="display:inline;fill:none;fill-opacity:1;stroke:#fc7e00;stroke-width:0.883632;stroke-linecap:round;stroke-miterlimit:100000;stroke-opacity:1"
       transform="matrix(0.39923606,0,0,-0.39923606,-16.067784,53.221833)"
       inkscape:label="dragon_fg"><path
         d="m 0,0 c 30.921,-11.059 51.194,-33.074 51.194,-33.074 l 3.071,0.409 C 41.979,-20.172 22.013,-6.656 0,0"
         style="display:inline;fill:none;fill-opacity:1;fill-rule:evenodd;stroke:#fc7e00;stroke-width:0.883632;stroke-linecap:round;stroke-miterlimit:100000;stroke-opacity:1"
         id="path451"
         transform="translate(79.0942,115.1504)" /><path
         d="M 0,0 C 0,0 1.573,-3.213 2.885,-4.328 1.901,-4.262 0.95,-3.541 0.099,-2.36 -0.754,-1.18 0,0 0,0 m -17.698,-25.908 c -4.064,12.186 -13.416,16.095 -17.249,18.7 -3.833,2.606 -9.352,12.953 -0.843,16.861 8.509,3.909 23.887,-7.58 23.887,-7.58 0,0 -0.639,-5.455 1.965,-7.569 2.605,-2.112 8.748,-4.127 11.696,-6.044 2.948,-1.917 9.632,-7.469 10.86,-9.681 2.555,2.85 6.879,5.554 8.109,6.291 -4.964,0.344 -10.584,4.043 -12.028,5.184 -1.443,1.142 -2.898,2.731 -2.878,3.023 0.022,0.292 0.689,0.604 0.939,0.604 0.25,0 0.187,0.959 -0.105,1.334 -0.292,0.375 -1.521,1.813 -2.271,2.709 -0.75,0.896 -5.023,8.378 -5.21,8.774 -0.188,0.396 -0.647,0.416 -1.459,0.354 -0.813,-0.062 -4.627,-0.625 -4.627,-0.625 0,0 -2.204,2.312 -2.326,2.648 -3.281,3.243 -6.819,6.938 -10.74,9.672 -2.044,1.77 -5.217,2.38 -5.217,2.38 0,0 -2.38,5.736 -7.048,6.987 2.96,-2.868 2.99,-5.98 2.99,-5.98 0,0 -2.38,0.671 -6.102,0.58 -1.099,1.83 -4.455,3.02 -7.72,2.441 2.929,-0.946 3.997,-3.326 3.997,-3.326 0,0 -3.661,-0.671 -5.156,-1.892 -0.915,1.16 -5.584,0.793 -7.475,-1.099 2.013,0.458 4.607,-0.182 5.034,-0.701 -3.051,-1.617 -3.753,-4.577 -3.753,-4.577 0,0 -4.607,-0.213 -5.949,-3.692 2.044,1.404 4.362,0.885 4.362,0.885 0,0 -1.922,-3.021 -1.708,-6.133 -1.495,-0.763 -3.051,-3.448 -2.96,-5.004 0.946,2.014 2.838,2.441 2.838,2.441 0,0 -0.758,-7.514 2.779,-12.476 3.537,-4.962 8.816,-12.511 9.238,-15.256 -5.701,0.105 -36.048,-5.291 -47.394,-13.492 12.649,5.135 28.594,10.73 58.874,10.73 30.281,0 56.958,-10.883 56.958,-10.883 0,0 -21.387,11.65 -44.308,13.412"
         style="display:inline;fill:none;fill-opacity:1;fill-rule:evenodd;stroke:#fc7e00;stroke-width:0.884189;stroke-linecap:round;stroke-linejoin:miter;stroke-miterlimit:100000;stroke-dasharray:none;stroke-opacity:1"
         id="path453"
         transform="translate(135.8525,73.3237)" /><path
         d="m 0,0 c -2.206,1.218 -4.811,3.148 -6.732,8.471 -2.032,5.629 1.439,11.579 9.982,10.676 7.731,-0.816 16.482,-7.252 17.932,-7.948 -2.379,2.262 -7.892,7.717 -13,10.734 -5.106,3.017 -14.218,2.785 -18.745,-1.567 -4.526,-4.351 -3.25,-15.898 4.005,-22.513 7.254,-6.614 5.165,-14.216 5.165,-14.216 0,0 10.04,0.174 16.54,-0.754 C 11.665,-6.151 2.205,-1.218 0,0"
         style="display:inline;fill:none;fill-opacity:1;fill-rule:evenodd;stroke:#fc7e00;stroke-width:0.883632;stroke-linecap:round;stroke-linejoin:round;stroke-miterlimit:100000;stroke-opacity:1"
         id="path455"
         transform="translate(102.689,64.6567)" /></g><g
       id="g8265"
       inkscape:label="star"><circle
         cx="38.412941"
         cy="24.691833"
         r="3.9583299"
         fill="url(#d)"
         opacity="0.5"
         id="circle273"
         style="display:inline;opacity:0.116;fill:url(#d);stroke-width:0.381233" /><path
         transform="matrix(0.06997891,0.07618155,-0.13943554,0.05302935,33.453306,-34.383881)"
         d="m 609.95,289.88 -15.602,-22.343 -31.767,45.566 29.676,-46.921 -29.113,-3.3253 27.151,-2.3403 -11.549,-24.684 17.565,23.328 54.39,-80.72 -52.299,82.076 27.151,2.3403 -27.151,2.3403 z"
         fill="#ffffff"
         filter="url(#e)"
         opacity="0.2"
         id="path275"
         style="display:inline;opacity:0.116" /><path
         transform="matrix(0.01500948,0.06169094,-0.10691646,0.01790188,57.585276,-16.538421)"
         d="m 609.95,289.88 -15.602,-22.343 -15.602,22.343 11.549,-24.684 -27.151,-2.3403 27.151,-2.3403 -11.549,-24.684 15.602,22.343 15.602,-22.343 -11.549,24.684 27.151,2.3403 -27.151,2.3403 z"
         fill="#ffffff"
         filter="url(#f)"
         opacity="0.3"
         id="path277"
         style="display:inline;opacity:0.106" /></g></g></svg>
